/* XPM */
static char *result[] = {
/* columns rows colors chars-per-pixel */
"32 32 146 2 ",
"   c #001D00",
".  c #001E00",
"X  c #002400",
"o  c #002500",
"O  c #002600",
"+  c #002700",
"@  c #002800",
"#  c #002A00",
"$  c #002B00",
"%  c #003500",
"&  c #004600",
"*  c #174B12",
"=  c #124814",
"-  c #184C12",
";  c #194D13",
":  c #194C14",
">  c #1E4E19",
",  c #1A5214",
"<  c #007100",
"1  c #136C11",
"2  c #19631C",
"3  c #1F6D1D",
"4  c #107818",
"5  c #117819",
"6  c #206C1F",
"7  c #216C20",
"8  c #216D20",
"9  c #216E20",
"0  c #227021",
"q  c #227221",
"w  c #227222",
"e  c #247623",
"r  c #217E25",
"t  c #3B7B3A",
"y  c #617B60",
"u  c #617C60",
"i  c #009000",
"p  c #009500",
"a  c #26952A",
"s  c #2B902D",
"d  c #2C932F",
"f  c #2D942F",
"g  c #2E9730",
"h  c #2E9A32",
"j  c #2E9D32",
"k  c #2E9D33",
"l  c #309E33",
"z  c #2BAD31",
"x  c #30A134",
"c  c #31A134",
"v  c #33AB38",
"b  c #34AF39",
"n  c #2AB531",
"m  c #36B53B",
"M  c #37B63B",
"N  c #36B73B",
"B  c #37B83C",
"V  c #22CF2C",
"C  c #39C43F",
"Z  c #31D138",
"A  c #33D13A",
"S  c #34D23B",
"D  c #37D53E",
"F  c #618862",
"G  c #638F61",
"H  c #639762",
"J  c #659265",
"K  c #669365",
"L  c #669366",
"P  c #679366",
"I  c #679467",
"U  c #689668",
"Y  c #699869",
"T  c #6A9969",
"R  c #6A996A",
"E  c #6D9E6C",
"W  c #729572",
"Q  c #7C957C",
"!  c #70A06F",
"~  c #64B665",
"^  c #6FB770",
"/  c #6FB870",
"(  c #3DCC42",
")  c #3DCD43",
"_  c #3BD341",
"`  c #3DD343",
"'  c #3DD443",
"]  c #3ED044",
"[  c #3FD345",
"{  c #3ED544",
"}  c #3FD445",
"|  c #3FD545",
" . c #40D346",
".. c #40D646",
"X. c #40D746",
"o. c #40D946",
"O. c #40D947",
"+. c #40DD47",
"@. c #42DE48",
"#. c #4CD351",
"$. c #4ED953",
"%. c #51D956",
"&. c #52D956",
"*. c #52D957",
"=. c #57D65C",
"-. c #54DB59",
";. c #62CD66",
":. c #62CE66",
">. c #72E475",
",. c #72E576",
"<. c #73E576",
"1. c #73E577",
"2. c #76EB7A",
"3. c #77EB7B",
"4. c #8FDC91",
"5. c #92DE93",
"6. c #9CF29E",
"7. c #9CF49E",
"8. c #A3D6A3",
"9. c #ABDCAA",
"0. c #9FF9A1",
"q. c #9FF9A2",
"w. c #AAE5AA",
"e. c #B7E9B6",
"r. c #B7E9B7",
"t. c #B7EAB7",
"y. c #B8ECB7",
"u. c #B8ECB8",
"i. c #BAEFBA",
"p. c #B9F0B9",
"a. c #BAF1B9",
"s. c #BAF1BA",
"d. c #BBF1BB",
"f. c #BAF3BA",
"g. c #BEF3BE",
"h. c #BCF4BC",
"j. c #C2F9C2",
"k. c #C3F9C2",
"l. c #C0FEC1",
"z. c #C1FFC1",
"x. c #C2FFC2",
"c. c #C2FFC3",
"v. c #C3FFC3",
"b. c #C3FFC4",
"n. c #D1FFD1",
"m. c None",
/* pixels */
"m.m.X # + O O O O O O O O O O O O O O O O O O O O O O + # o m.m.",
"m.m.G E Y U I P P P P P P P P P P P P P P P P P P I U T ! J m.m.",
"X G 8.h.f.s.u.e.r.t.t.t.t.t.t.t.t.t.t.t.t.t.t.r.e.y.a.h.j.9.L   ",
"$ E h.n.g.p.l.b.v.v.v.v.v.v.v.v.v.v.v.v.v.v.v.v.b.z.d.i.x.w.H % ",
"@ Y f.g.Q F 4.q.7.6.6.6.6.6.6.6.6.6.6.6.6.6.6.7.0.5.W y ^ ~ t & ",
"+ U s.p.F < ;.2.<.>.>.>.>.>.>.>.>.>.>.>.>.>.>.1.3.;.5 & i p 1 > ",
"+ I y.l.4.;.=.$.%.*.*.*.*.*.*.*.*.*.*.*.*.*.*.*.-.#.C n z a 3 : ",
"+ P e.b.0.2.$.V Z S S S S S S S S S S S S S S S A D +. .B d 7 - ",
"+ P r.v.7.,.%.Z _ ' ' ' ' ' ' ' ' ' ' ' ' ' ' ' ` { o.) M f 8 - ",
"+ P t.c.6.>.&.S ' } } } } } } } } } } } } } } } } | X.( m f 8 - ",
"+ P t.c.6.>.&.S ' } } } } } } } } } } } } } } } } | X.( m f 8 - ",
"+ P t.c.6.>.&.S ' } } } } } } } } } } } } } } } } | X.( m f 8 - ",
"+ P t.c.6.>.&.S ' } } } } } } } } } } } } } } } } | X.( m f 8 - ",
"+ P t.c.6.>.&.S ' } } } } } } } } } } } } } } } } | X.( m f 8 - ",
"+ P t.c.6.>.&.S ' } } } } } } } } } } } } } } } } | X.( m f 8 - ",
"+ P t.c.6.>.&.S ' } } } } } } } } } } } } } } } } | X.( m f 8 - ",
"+ P t.c.6.>.&.S ' } } } } } } } } } } } } } } } } | X.( m f 8 - ",
"+ P t.c.6.>.&.S ' } } } } } } } } } } } } } } } } | X.( m f 8 - ",
"+ P t.c.6.>.&.S ' } } } } } } } } } } } } } } } } | X.( m f 8 - ",
"+ P t.c.6.>.&.S ' } } } } } } } } } } } } } } } } | X.( m f 8 - ",
"+ P t.c.6.>.&.S ' } } } } } } } } } } } } } } } } | X.( m f 8 - ",
"+ P t.c.6.>.&.S ' } } } } } } } } } } } } } } } } | X.( m f 8 - ",
"+ P t.c.6.>.&.S ' } } } } } } } } } } } } } } } } | X.( m f 8 - ",
"+ P r.v.7.1.*.S ' } } } } } } } } } } } } } } } } | O.) M f 8 - ",
"+ P e.b.0.3.-.A ` } } } } } } } } } } } } } } } [ ..@.[ B d 7 - ",
"+ I y.z.5.:.#.D { | | | | | | | | | | | | | | | ..] C N b g 9 - ",
"+ U a.d.W 4 C +.o.X.X.X.X.X.X.X.X.X.X.X.X.X.X.O.@.C r 2 j l 0 - ",
"@ R h.i.u & n  .) ( ( ( ( ( ( ( ( ( ( ( ( ( ( ) [ N 2 = h c w ; ",
"$ ! k.c./ i z B M m m m m m m m m m m m m m m M B b k h v x e , ",
"X K 9.w.~ p a d f f f f f f f f f f f f f f f f d g l c x s 6 * ",
"m.m.L H t 1 3 7 8 8 8 8 8 8 8 8 8 8 8 8 8 8 8 8 7 9 0 q e 6 m.m.",
"m.m.. % & > : - - - - - - - - - - - - - - - - - - - - ; , - m.m."
};
