/* XPM */
static char *result[] = {
/* columns rows colors chars-per-pixel */
"32 32 226 2 ",
"   c #13002F",
".  c #15002F",
"X  c #32002F",
"o  c #3F002F",
"O  c #491D31",
"+  c #523030",
"@  c #523130",
"#  c #573730",
"$  c #573731",
"%  c #573930",
"&  c #583930",
"*  c #583A30",
"=  c #5C3D32",
"-  c #5D4130",
";  c #5E4130",
":  c #5E4230",
">  c #604331",
",  c #604332",
"<  c #624730",
"1  c #624831",
"2  c #664835",
"3  c #674835",
"4  c #695131",
"5  c #6A5130",
"6  c #6D5531",
"7  c #6E5631",
"8  c #6F5631",
"9  c #6E5731",
"0  c #6F5731",
"q  c #715B30",
"w  c #725B31",
"e  c #735B31",
"r  c #725C31",
"t  c #735C31",
"y  c #735E31",
"u  c #745E31",
"i  c #765B36",
"p  c #785E35",
"a  c #795F36",
"s  c #7B6529",
"d  c #7D6729",
"f  c #7A6432",
"g  c #7C6731",
"h  c #7B6634",
"j  c #7E6930",
"k  c #7E6934",
"l  c #7F6338",
"z  c #816C32",
"x  c #806934",
"c  c #806438",
"v  c #877232",
"b  c #877332",
"n  c #877333",
"m  c #887333",
"M  c #887430",
"N  c #887432",
"B  c #897532",
"V  c #887433",
"C  c #8A7532",
"Z  c #8B7732",
"A  c #8D7932",
"S  c #8A7139",
"D  c #927E33",
"F  c #917A37",
"G  c #938032",
"H  c #928033",
"J  c #938033",
"K  c #958233",
"L  c #968232",
"P  c #958034",
"I  c #988533",
"U  c #998632",
"Y  c #998633",
"T  c #9A8733",
"R  c #9A8734",
"E  c #9B8833",
"W  c #9A8438",
"Q  c #A6932B",
"!  c #A7942B",
"~  c #A08D33",
"^  c #A28D37",
"/  c #A38E36",
"(  c #A38F36",
")  c #A48F38",
"_  c #A99734",
"`  c #AA9734",
"'  c #AB953B",
"]  c #AC953B",
"[  c #AE973B",
"{  c #B2A034",
"}  c #B9A636",
"|  c #BCA838",
" . c #C8B636",
".. c #C9B736",
"X. c #C9B836",
"o. c #CAB936",
"O. c #CBB936",
"+. c #CAB837",
"@. c #CBB937",
"#. c #C5B03B",
"$. c #DBC808",
"%. c #DCC908",
"&. c #D5C211",
"*. c #D6C310",
"=. c #EBD600",
"-. c #ECD800",
";. c #ECD900",
":. c #EDD900",
">. c #EDDA00",
",. c #EEDB00",
"<. c #F2DF00",
"1. c #EAD615",
"2. c #E9D616",
"3. c #EDDB16",
"4. c #F4E100",
"5. c #F3E010",
"6. c #F3E011",
"7. c #D6C437",
"8. c #D8C632",
"9. c #D8C637",
"0. c #D9C737",
"q. c #DCCA32",
"w. c #DAC837",
"e. c #DBC937",
"r. c #DDCB36",
"t. c #DECD36",
"y. c #D6C438",
"u. c #DCCA38",
"i. c #DDCB38",
"p. c #DDCB3B",
"a. c #DFCD38",
"s. c #DECC39",
"d. c #EFDD2B",
"f. c #E0CE31",
"g. c #E0CE38",
"h. c #E6D434",
"j. c #E8D633",
"k. c #EFDD32",
"l. c #EEDC33",
"z. c #E3D138",
"x. c #E3D139",
"c. c #E4D238",
"v. c #E5D338",
"b. c #E6D33A",
"n. c #E6D439",
"m. c #E7D539",
"M. c #E7D53A",
"N. c #E9D739",
"B. c #E9D73A",
"V. c #EBD939",
"C. c #ECDA39",
"Z. c #EFDD39",
"A. c #ECDA3C",
"S. c #EDDB3C",
"D. c #F1DF32",
"F. c #F1DF34",
"G. c #F0DE39",
"H. c #F1DF39",
"J. c #F3E12A",
"K. c #F5E22B",
"L. c #F3E132",
"P. c #F3E133",
"I. c #F4E233",
"U. c #F5E333",
"Y. c #F6E432",
"T. c #F4E234",
"R. c #F5E234",
"E. c #F7E434",
"W. c #FAE833",
"Q. c #FBE933",
"!. c #FAE837",
"~. c #F3E139",
"^. c #F4E23A",
"/. c #F5E33A",
"(. c #F6E33A",
"). c #F6E43A",
"_. c #F7E53A",
"`. c #F8E63A",
"'. c #FAE838",
"]. c #FBE938",
"[. c #FAE839",
"{. c #FAE83A",
"}. c #FBE93A",
"|. c #A89745",
" X c #EDDC44",
".X c #EFDD49",
"XX c #EFDF58",
"oX c #F3E145",
"OX c #F4E349",
"+X c #F0E059",
"@X c #E1D265",
"#X c #E0D166",
"$X c #F0E165",
"%X c #F2E265",
"&X c #F1E166",
"*X c #F0E167",
"=X c #F2E366",
"-X c #F6E767",
";X c #F7E867",
":X c #F2E268",
">X c #F1E26D",
",X c #F1E26F",
"<X c #F3E46F",
"1X c #F1E272",
"2X c #F2E373",
"3X c #F7E871",
"4X c #F7E872",
"5X c #F4E682",
"6X c #F4E784",
"7X c #F5ECA6",
"8X c #F5ECA7",
"9X c #F9EFA5",
"0X c #F9F0A5",
"qX c #FBF1A7",
"wX c #FBF2A7",
"eX c #FAF1AB",
"rX c #FDF5B8",
"tX c #FDF6B9",
"yX c #FEF7BD",
"uX c #FDF7BE",
"iX c #FEF7BF",
"pX c #FEF8BE",
"aX c #FFF9BE",
"sX c #FFF9BF",
"dX c #FEF8C0",
"fX c None",
/* pixels */
"fXfXfXfXfXfXfXfXfXfXfXfX- 2 > : : > 2 - fXfXfXfXfXfXfXfXfXfXfXfX",
"fXfXfXfXfXfXfXfXfXfXfXfXL / R I I T / K fXfXfXfXfXfXfXfXfXfXfXfX",
"fXfXfXfXfXfXfXfXfXfX  v X.x.u.w.w.u.x.@.m o 5 u fXfXfXfXfXfXfXfX",
"fXfXfXfXfXfXfXfXfXfXb #.B.'.R.L.L.T.'.M.| F S 7 fXfXfXfXfXfXfXfX",
"fXfXfXfXfXfXfXfX$ H ..B.S.k.3.:.:.3.k.A.n.+.P < 0 w fXfXfXfXfXfX",
"fXfXfXfXfXfXfXfX+ ' b.!.d. X$X2X2X&X.XD.[.g.U = l r fXfXfXfXfXfX",
"fXfXfXfXfXfXfXfXX W p.K.-.XX9XdXiXqX-X5.E.0.A O i y fXfXfXfXfXfX",
"fXfXfXfXfXfXfXfXC } f.oX+X6XeXpXsX7X#X%.l.g.{ n x 6 fXfXfXfXfXfX",
"fXfXfXfXfXfX$ G o.h.2.%X0XeX5X:X3X@X|.! t.G.v. .D 1 0 w fXfXfXfX",
"fXfXfXfXfXfX& [ b.W.,.1XiXyX*X=.<.&.d k y._.}.g.E , c e fXfXfXfX",
"fXfXfXfXfXfX* ) s.I.>.,XtXtX>X;.J.8.M V 9.(.).e.I > a w fXfXfXfX",
"fXfXfXfXfXfX& ^ u.P.>.,XrXrX,X>.P.9.Z Z 9././.w.I > p q fXfXfXfX",
"fXfXfXfXfXfX& ^ u.P.>.,XrXrX,X>.P.9.Z Z 9././.w.I > p q fXfXfXfX",
"fXfXfXfXfXfX& ^ u.P.>.,XrXrX,X>.P.9.Z Z 9././.w.I > p q fXfXfXfX",
"fXfXfXfXfXfX& ^ u.P.>.,XrXrX,X>.P.9.Z Z 9././.w.I > p q fXfXfXfX",
"fXfXfXfXfXfX& ^ u.P.>.,XrXrX,X>.P.9.Z Z 9././.w.I > p q fXfXfXfX",
"fXfXfXfXfXfX& ^ u.P.>.,XrXrX,X>.P.9.Z Z 9././.w.I > p q fXfXfXfX",
"fXfXfXfXfXfX& ^ u.P.>.,XrXrX,X>.P.9.Z Z 9././.w.I > p q fXfXfXfX",
"fXfXfXfXfXfX& ^ u.P.>.,XrXrX,X>.P.9.Z Z 9././.w.I > p q fXfXfXfX",
"fXfXfXfXfXfX& ^ u.P.>.,XrXrX,X>.P.9.Z Z 9././.w.I > p q fXfXfXfX",
"fXfXfXfXfXfX& ^ u.P.>.,XrXrX,X>.P.9.Z Z 9././.w.I > p q fXfXfXfX",
"fXfXfXfXfXfX* ) s.I.>.,XtXtX<X,.U.0.B N 9.(.).e.I > a w fXfXfXfX",
"fXfXfXfXfXfX% [ b.W.,.1XuXaX4X4.Q.i.z g 7._.}.g.E , c e fXfXfXfX",
"fXfXfXfXfXfX# G X.h.1.=XwX8X@X*.q.O.~ ` a.G.v. .D 1 9 w fXfXfXfX",
"fXfXfXfXfXfXfXfXC } f.OX;X#X|.s j ~ o.c.Z.g.{ m x 6 fXfXfXfXfXfX",
"fXfXfXfXfXfXfXfXX W p.Y.6.$.Q h f _ z.{.`.0.A O i y fXfXfXfXfXfX",
"fXfXfXfXfXfXfXfX@ ] b.].F.j.r.y.7.i.N.~.{.g.Y = l t fXfXfXfXfXfX",
"fXfXfXfXfXfXfXfX$ J ..B.C.H.^.).).^.H.V.n.+.P < 8 w fXfXfXfXfXfX",
"fXfXfXfXfXfXfXfXfXfXb #.B.}.)././.).}.m.| F S 7 fXfXfXfXfXfXfXfX",
"fXfXfXfXfXfXfXfXfXfX. v X.x.u.w.w.u.x.@.m o 4 u fXfXfXfXfXfXfXfX",
"fXfXfXfXfXfXfXfXfXfXfXfXL ( R I I R / K fXfXfXfXfXfXfXfXfXfXfXfX",
"fXfXfXfXfXfXfXfXfXfXfXfX- 3 > : : > 3 ; fXfXfXfXfXfXfXfXfXfXfXfX"
};
