/* XPM */
static char *result[] = {
/* columns rows colors chars-per-pixel */
"32 32 132 2 ",
"   c #247623",
".  c #247922",
"X  c #268126",
"o  c #278329",
"O  c #288529",
"+  c #2A8C2B",
"@  c #239B27",
"#  c #2C932E",
"$  c #269D2A",
"%  c #2B9A2E",
"&  c #2D9530",
"*  c #2E9B31",
"=  c #319D35",
"-  c #3A9D3C",
";  c #29B02E",
":  c #2FA032",
">  c #31A435",
",  c #33A937",
"<  c #39A33C",
"1  c #34AD38",
"2  c #2BB030",
"3  c #2CBC32",
"4  c #33B137",
"5  c #31B837",
"6  c #35B239",
"7  c #3AB53E",
"8  c #37BB3C",
"9  c #38BC3D",
"0  c #2ECE36",
"q  c #34C63A",
"w  c #39C33F",
"e  c #32CE39",
"r  c #2FD137",
"t  c #30D237",
"y  c #35D23D",
"u  c #38D73F",
"i  c #33D93B",
"p  c #3FA541",
"a  c #3BBF40",
"s  c #499049",
"d  c #5A8058",
"f  c #43A645",
"g  c #48A64A",
"h  c #4DA84F",
"j  c #48B74B",
"k  c #56AD58",
"l  c #4EBA51",
"z  c #53BB56",
"x  c #59BD5B",
"c  c #669265",
"v  c #739772",
"b  c #76A275",
"n  c #75AE76",
"m  c #73B574",
"M  c #7DB77D",
"N  c #3BC441",
"B  c #3CCB42",
"V  c #3ED345",
"C  c #40C245",
"Z  c #45CD4A",
"A  c #41DB47",
"S  c #45D54B",
"D  c #45D94A",
"F  c #49DE4F",
"G  c #4DC351",
"H  c #4ECB52",
"J  c #53C757",
"K  c #59C65B",
"L  c #5BCA5F",
"P  c #4FD555",
"I  c #55D65A",
"U  c #5AD25E",
"Y  c #57DA5B",
"T  c #58DC5D",
"R  c #48E04D",
"E  c #5EDD62",
"W  c #60CB63",
"Q  c #61D465",
"!  c #61DC64",
"~  c #65DE69",
"^  c #6BDF6F",
"/  c #74C175",
"(  c #5DE162",
")  c #61E466",
"_  c #66E26A",
"`  c #6AE56E",
"'  c #6AE86F",
"]  c #6DE271",
"[  c #72EA76",
"{  c #80B37F",
"}  c #82A181",
"|  c #8EAD8E",
" . c #8EBE8E",
".. c #95B295",
"X. c #91BE92",
"o. c #A7BEA7",
"O. c #AABAAA",
"+. c #87C388",
"@. c #8FC18F",
"#. c #93C393",
"$. c #93D595",
"%. c #9DD09C",
"&. c #9BDD9D",
"*. c #9CE19F",
"=. c #ACCCAB",
"-. c #AED1AE",
";. c #B4CEB4",
":. c #B5D3B5",
">. c #B9D5B9",
",. c #BFDCBF",
"<. c #A2E4A4",
"1. c #A5E9A7",
"2. c #A7EAA9",
"3. c #AAEDAB",
"4. c #ACF1AE",
"5. c #BFDDC0",
"6. c #C3CDC3",
"7. c #C0D3C0",
"8. c #C0DDC0",
"9. c #C2E1C2",
"0. c #D1E7D1",
"q. c #D8E4D7",
"w. c #E5EEE5",
"e. c #EBECEB",
"r. c #E4F3E4",
"t. c #EEF6EE",
"y. c #EDFEED",
"u. c #EEFEF0",
"i. c #F1F6F1",
"p. c #F3F9F4",
"a. c #FBFBFA",
"s. c None",
/* pixels */
"c } O.=.n g h f : $ > p g f > $ & & # + O o O O O + # # % % + X ",
"b ..6.7. .l x l 6 2 7 j z l 7 ; , > > & + + + & # = = , 6 1 % + ",
" .;.e.r.<.! ^ E y 0 S I Q ! S e w w 8 1 , = , , , 1 9 N Z w 1 : ",
"#.8.a.p.4.' [ ) A i F ( ` _ R i A C w 8 1 , 1 6 6 9 N B A A 8 , ",
"X.>.t.y.2.~ ] E V 0 S Y ~ E A y w N 9 7 , > , , 1 6 w w y C 6 > ",
" .:.t.y.1.! ^ E V 0 S I ~ E S e w a 9 6 > > , , 1 6 8 N A w 4 > ",
" .>.t.y.2.~ ] E V 0 S Y ~ U D e B N 9 6 > > , , 1 6 9 N A B 4 : ",
" .>.t.y.2.~ ^ E A t S Y ~ ! D e B a 9 6 > > , , 1 6 9 N B B 4 > ",
" .>.t.y.1.~ ` E V r S Y ~ E S r w a 9 1 > > , , 1 6 9 w S B 4 : ",
" .>.t.y.2.~ ] ! V 0 S Y ~ E S y B C 9 6 , > , 1 1 7 9 N A w 4 > ",
"X.>.i.u.3.` ] E V t D Y _ ! D y V N a 7 , > , 1 1 6 w B A B 6 > ",
"#.>.i.u.2.~ ` E V y S T ~ ! D e B N 9 6 , > , , 1 6 9 N V B 6 > ",
"%.8.p.y.*.P ^ E V r S I Q ! S 0 w 9 9 6 > = > > , 4 7 a B V 8 4 ",
" .=.q.0.$.L W J q 3 a G K J N 3 8 1 , , * & * : = > , 6 w 8 , : ",
"d v | #.+./ k > $ @ = - p - * % # # # + + + + + + # # # & + X . ",
"s.s.s } :.-.m , p < % % - f < = = # # # + # & & & & > = + . s.s.",
"s.s.M -.r.r.&.U Q I q q K E H C 8 4 , , , > , 1 7 9 N w 1 % s.s.",
"s.s.@.9.a.a.3._ ] ( u V ( _ Y S B 5 8 1 , 1 6 7 w B A A 9 , s.s.",
"s.s.#.8.p.u.2.~ ] ( y y E _ Y Z w 5 1 , , , 1 7 9 B V B 8 > s.s.",
"s.s. .5.p.y.2.~ ] E y y E ^ I Z w 5 1 , , , , 6 8 w V V 8 > s.s.",
"s.s.#.,.p.y.2.~ ] E y y E ~ Y Z w 5 6 , > , , 6 9 w A V 8 > s.s.",
"s.s.@.,.p.u.2.~ ] E y y ! ~ I Z w 5 6 , > , , 6 9 w V B 8 = s.s.",
"s.s.@.9.p.y.2._ ] E V y E ~ I Z w 5 6 , , , , 6 9 w V B 8 : s.s.",
"s.s.@.,.p.u.2.~ ] E y y E ~ Y Z w 5 6 , > , 1 8 9 B A B 8 > s.s.",
"s.s.@.5.p.u.2.~ ] E y y E ~ I Z N 5 1 , > , 1 6 9 B V V 8 : s.s.",
"s.s.@.5.p.u.2.~ ] E y y E _ I Z w 5 6 , , , 1 6 w w V B 8 : s.s.",
"s.s.@.5.p.u.2.~ ] E V y E ~ I Z w 3 6 , > , , 7 8 w V B 8 > s.s.",
"s.s.@.8.p.u.2.~ ] E y y E ~ Y Z N 5 6 , > , , 6 9 B V V 8 > s.s.",
"s.s.@.5.p.u.2.~ ] E y y E ~ I Z N 5 1 , > , 1 6 8 B A V 8 : s.s.",
"s.s.@.5.p.u.2.~ ] E y y E _ I Z a 3 1 , , > 1 8 9 w V B 8 > s.s.",
"s.s.X.5.p.u.2.~ ] E y y E _ I Z N 5 6 , , , , 8 8 B V B 8 : s.s.",
"s.s.X.5.p.u.2.~ ] E y V ! ~ I Z N 5 1 , > , , 6 9 N V V 8 > s.s."
};
