/* XPM */
static char *result[] = {
/* columns rows colors chars-per-pixel */
"16 16 144 2 ",
"   c #1B5917",
".  c #22501E",
"X  c #267D26",
"o  c #288429",
"O  c #288628",
"+  c #29892A",
"@  c #298A2B",
"#  c #2A8B2B",
"$  c #2A8C2C",
"%  c #2A8E2C",
"&  c #2C8F2E",
"*  c #2B922E",
"=  c #2C932E",
"-  c #2C932F",
";  c #2D972F",
":  c #2D9830",
">  c #2F9B32",
",  c #359837",
"<  c #26A32A",
"1  c #2BA52F",
"2  c #31A234",
"3  c #31A235",
"4  c #31A335",
"5  c #31A434",
"6  c #31A634",
"7  c #31A734",
"8  c #32A436",
"9  c #32A736",
"0  c #32A737",
"q  c #32A835",
"w  c #32A935",
"e  c #32AA35",
"r  c #33A937",
"t  c #32AA36",
"y  c #32AB36",
"u  c #33AA37",
"i  c #33AC36",
"p  c #34AB38",
"a  c #34AC38",
"s  c #34AE39",
"d  c #35AE39",
"f  c #35AF39",
"g  c #3CA83E",
"h  c #35B139",
"j  c #35B13A",
"k  c #36B23A",
"l  c #36B43B",
"z  c #37B73B",
"x  c #34BE3A",
"c  c #35BF3B",
"v  c #37B83C",
"b  c #38BA3D",
"n  c #3ABD3F",
"m  c #39BE3E",
"M  c #39BF3E",
"N  c #2BC832",
"B  c #2FCF36",
"V  c #39C03E",
"C  c #39C13E",
"Z  c #39C03F",
"A  c #39C13F",
"S  c #3AC23F",
"D  c #34CC3A",
"F  c #29D031",
"G  c #29D032",
"H  c #2AD033",
"J  c #2FD137",
"K  c #30D338",
"L  c #30D739",
"P  c #37D33D",
"I  c #37D43E",
"U  c #38D63F",
"Y  c #419C43",
"T  c #4CAC4E",
"R  c #4EAE50",
"E  c #5CAE5E",
"W  c #6A9F6A",
"Q  c #739B72",
"!  c #3BC641",
"~  c #3CC441",
"^  c #3CC542",
"/  c #3DC542",
"(  c #3DC743",
")  c #3DCC43",
"_  c #3ECB44",
"`  c #3ED144",
"'  c #3FD245",
"]  c #3FD445",
"[  c #39DB40",
"{  c #40D546",
"}  c #41D947",
"|  c #4CCF51",
" . c #4CD251",
".. c #4CD351",
"X. c #4ED653",
"o. c #4FD754",
"O. c #4FD854",
"+. c #50DA55",
"@. c #52DE57",
"#. c #62D465",
"$. c #64D768",
"%. c #6AD26E",
"&. c #65DC68",
"*. c #65DD69",
"=. c #66DE69",
"-. c #67DF6B",
";. c #68DF6C",
":. c #65E069",
">. c #67E06A",
",. c #67E06B",
"<. c #68E06B",
"1. c #68E16C",
"2. c #69E06D",
"3. c #6AE16E",
"4. c #6AE36E",
"5. c #69E46D",
"6. c #6DE771",
"7. c #7BE27E",
"8. c #7CE07F",
"9. c #7DE180",
"0. c #7DE280",
"q. c #7DE281",
"w. c #97CA97",
"e. c #9AC39A",
"r. c #9BC49B",
"t. c #9BC59B",
"y. c #9EC79D",
"u. c #9CCB9C",
"i. c #9FC99F",
"p. c #9FCB9E",
"a. c #81E584",
"s. c #81E884",
"d. c #A0C8A0",
"f. c #A1CAA1",
"g. c #B8C6B8",
"h. c #F2FAF2",
"j. c #F7FFF7",
"k. c #F9FFF9",
"l. c #F9FFFA",
"z. c #FBFFFB",
"x. c #FBFFFC",
"c. c #FEFFFE",
"v. c white",
"b. c None",
/* pixels */
"Q g.E R < g T 1 > * o + $ ; 5 O ",
"f.v.s.6.L @.5.[ _ m 0 f l ! } y ",
"e.j.8.;.B X.&.P ~ z 2 r s M ` 6 ",
"t.l.9.2.J O.=.I / v 4 u f Z ' 7 ",
"r.k.9.2.J o.*.I ^ v 3 u f Z ' 6 ",
"y.z.a.4.K +.>.U ( b 8 a j S ] q ",
"p.h.%.$.N | #.D n h > 2 9 z ) i ",
". W w.Y : & , - % $ @ # $ = X   ",
"b.u.c.7.1.H :...c f p k S { w b.",
"b.d.z.q.3.F <. .x p 9 d V ] t b.",
"b.i.z.0.3.G -. .x a 9 f C ] w b.",
"b.i.x.q.3.G ,. .x a 9 f A ] e b.",
"b.i.x.q.3.G ,. .x a 9 f A ] e b.",
"b.i.x.q.3.G ,. .x a 9 f A ] e b.",
"b.i.x.q.3.G ,. .x a 9 f A ] e b.",
"b.i.x.q.3.G ,. .x a 9 f A ] e b."
};
