/* XPM */
static char *result[] = {
/* columns rows colors chars-per-pixel */
"32 32 51 1 ",
"  c #00794C",
". c #007B4C",
"X c #007C4C",
"o c #037D4C",
"O c #057D4C",
"+ c #0D7F4C",
"@ c #11804C",
"# c #14814C",
"$ c #17824C",
"% c #1C844B",
"& c #1E844B",
"* c #1F854B",
"= c #1A834C",
"- c #1B834C",
"; c #21864B",
": c #22864B",
"> c #22874B",
", c #24874B",
"< c #26884B",
"1 c #288A4B",
"2 c #298A4B",
"3 c #2A8B4B",
"4 c #2B8B4B",
"5 c #2C8C4B",
"6 c #2D8C4B",
"7 c #2E8D4B",
"8 c #2F8D4B",
"9 c #318F4B",
"0 c #328F4B",
"q c #32904A",
"w c #33904A",
"e c #32904B",
"r c #34914A",
"t c #35914A",
"y c #35924A",
"u c #36924A",
"i c #36934A",
"p c #37934A",
"a c #38934A",
"s c #38944A",
"d c #39944A",
"f c #39954A",
"g c #3A954A",
"h c #3A964A",
"j c #3B964A",
"k c #3C964A",
"l c #3C974A",
"z c #3D974A",
"x c #3D984A",
"c c #3E984A",
"v c #3F994A",
/* pixels */
"zjzr.yv7ofljjjjjjjjjjjzjjjjjjjjj",
"$rxf9fla0hjlxjjjjjjjlr-sljjjjjjj",
":yljxjjlzjle5jjjjjjjly,dkjjjjjjj",
"xljjjjjjjjx3%kjjjjjjjkxjjjjjjjjj",
"jjjjjjjjjjjjjjjjjjjjjjjjjjjjjjjj",
"jjjjjjjjjjjjjjjjjjjjjjjjjjjjjjjj",
"jjjjjjjjjjjjjjjjjjjjjjjjjjjjjjjj",
"jjjjjjjjjjjjjjjjjjjjjjjjjjjjjjjj",
"jjjjjjjjjjjjjjjjjjjjjjjjjjjjjjjj",
"jlkjjjjjjjjjjjjjjjjjjjjjjjjjjjjj",
"l>2zjjjjjjjjjjjjjjjjjjjjjjjjjjkc",
"l48ljjjjjjjjjjjjjjjjjjjjjjjjjlu<",
"jzljjjjjjjjjjjjjjjjjjjjjjjjjjzw@",
"jjjjjjjjjjjjjjjjjjjjjjjjjjjjjjjl",
"jjjjjjjjjjjjjjjjjjjjjjjjjjjjjjjj",
"jjjjjjjjjjjjjjjjjjjjjjjjjjjjjjjj",
"jjjjjjjjjjjjjjjjjjjjjjjjjjjjjjjj",
"jjjjjjjjjjjjjjjjjjjjjjjjjjjjjjjj",
"jjjjjjjjjjjjjjjjjjjjjjjjjjjjjjjj",
"jjlxjjjjjjjjjjjjjjjjjjjjjjjjjjjj",
"jl02jjjjjjjjjjjjjjjjjjjjjjjjjjkx",
"jx6&jjjjjjjjjjjjjjjjjjjjjjjjjks9",
"jjkljjjjjjjjjjjjjjjjjjjjjjjjjx9X",
"xkjjjjjjjjjjjjjjjjjjjjjjjjjjjjgp",
"=rzjjjjjjjjjjjjjjjjjjjjjjjjjjjjl",
"*tljjjjjjjjjjjjjjjljjjjjlzljjjjl",
"cljjjjjjjjjjjjjjjgygjjjjptijjjfy",
"jjjjjjjjjjjjjjjjliOwzjjz; $jjx9.",
"+qzjjjjjjjjjjjjjjgrfjjjjpwyjjjdr",
"1iljjjjjjjzljjjjjjzjlzjjlzljjjjz",
"cljjjjjjjjwyljjjjjjluwjjjjjjjjjj",
"jjjjjjjjjl#,cjjjjjjc,#ljjjjjjjjj"
};
