/* XPM */
static char *result[] = {
/* columns rows colors chars-per-pixel */
"32 32 224 2 ",
"   c #100605",
".  c #2D000C",
"X  c #001921",
"o  c #000036",
"O  c #34002B",
"+  c #002329",
"@  c #183333",
"#  c #373436",
"$  c #33312C",
"%  c #460200",
"&  c #500B00",
"*  c #6B0804",
"=  c #5B3B1A",
"-  c #53361C",
";  c #623B1B",
":  c #672E0A",
">  c #510032",
",  c #640C32",
"<  c #670024",
"1  c #473625",
"2  c #4C333A",
"3  c #572933",
"4  c #683925",
"5  c #753629",
"6  c #6A383B",
"7  c #71293D",
"8  c #5F421F",
"9  c #784703",
"0  c #65421C",
"q  c #57433E",
"w  c #58462C",
"e  c #7A5D2A",
"r  c #794531",
"t  c #6B5B36",
"y  c #6A512C",
"u  c #457227",
"i  c #000079",
"p  c #282751",
"a  c #470059",
"s  c #5D3C48",
"d  c #6E3A42",
"f  c #084848",
"g  c #334C74",
"h  c #504141",
"j  c #664A43",
"k  c #794743",
"l  c #634B54",
"z  c #695759",
"x  c #725D54",
"c  c #735849",
"v  c #556E42",
"b  c #77665B",
"n  c #6D6A55",
"m  c #705967",
"M  c #556D73",
"N  c #65666C",
"B  c #746561",
"V  c #787877",
"C  c #6A6E72",
"Z  c #495168",
"A  c #9C010C",
"S  c #890207",
"D  c #B00000",
"F  c #BC0028",
"G  c #8E3934",
"H  c #DF202A",
"J  c #804C00",
"K  c #854B13",
"L  c #8E590A",
"P  c #904D33",
"I  c #A64338",
"U  c #826D2B",
"Y  c #996B25",
"T  c #957832",
"R  c #89384B",
"E  c #912D4A",
"W  c #B9354E",
"Q  c #FF0055",
"!  c #F00E4E",
"~  c #E9315B",
"^  c #FC0663",
"/  c #F61C63",
"(  c #ED2366",
")  c #E33C6A",
"_  c #FE2564",
"`  c #CB3651",
"'  c #874845",
"]  c #98544C",
"[  c #975B55",
"{  c #914753",
"}  c #B65650",
"|  c #82645E",
" . c #896047",
".. c #AB655B",
"X. c #855B6A",
"o. c #AA5E72",
"O. c #B15F74",
"+. c #B0556A",
"@. c #856D6A",
"#. c #967A6F",
"$. c #967D77",
"%. c #8E7278",
"&. c #A96677",
"*. c #B26579",
"=. c #AA7B71",
"-. c #C75A54",
";. c #D6494F",
":. c #CF625C",
">. c #C15468",
",. c #C7486A",
"<. c #F64E73",
"1. c #D26B6B",
"2. c #EA667D",
"3. c #FF677A",
"4. c #ED706E",
"5. c #AC801C",
"6. c #9F863C",
"7. c #A88534",
"8. c #BA8F39",
"9. c #D4AD3E",
"0. c #AA9051",
"q. c #94817A",
"w. c #B9A36D",
"e. c #9A8E4C",
"r. c #D1AD4A",
"t. c #C7A751",
"y. c #EDAA71",
"u. c #D6AE69",
"i. c #006990",
"p. c #3F7D99",
"a. c #455188",
"s. c #737488",
"d. c #B36A8C",
"f. c #B37385",
"g. c #ED5A86",
"h. c #FE5481",
"j. c #DC6784",
"k. c #EC658B",
"l. c #EB7394",
"z. c #FE7799",
"x. c #F66F86",
"c. c #00929D",
"v. c #279AA1",
"b. c #598B92",
"n. c #56949D",
"m. c #718E8E",
"M. c #74A19C",
"N. c #5A98A3",
"B. c #4D92A1",
"V. c #57B9BC",
"C. c #53A2A2",
"Z. c #69B4B1",
"A. c #6CB4B0",
"S. c #5EC1BF",
"D. c #6EC3BD",
"F. c #65BAC2",
"G. c #5FC8C1",
"H. c #4AD0C9",
"J. c #64C5C2",
"K. c #68D9CA",
"L. c #77D5C8",
"P. c #76C8C5",
"I. c #69E7D3",
"U. c #74E5D2",
"Y. c #98989A",
"T. c #879290",
"R. c #AC8E82",
"E. c #AA9285",
"W. c #B39B8E",
"Q. c #B28896",
"!. c #81A19B",
"~. c #BBA397",
"^. c #A8A09C",
"/. c #8D9DA5",
"(. c #BF9CA3",
"). c #8EAFA9",
"_. c #A7A5A5",
"`. c #B5B0B3",
"'. c #CE918A",
"]. c #F7958C",
"[. c #EA839B",
"{. c #FC8695",
"}. c #EE948A",
"|. c #D1A798",
" X c #ECA79B",
".X c #FBA297",
"XX c #FFAD80",
"oX c #F78BA7",
"OX c #FF95A5",
"+X c #F091A8",
"@X c #D8B4A4",
"#X c #D0B4AF",
"$X c #E8B7A8",
"%X c #FDBAAC",
"&X c #FAB2AB",
"*X c #F8BBB6",
"=X c #ECACB3",
"-X c #C8C0BE",
";X c #FEC0AF",
":X c #EAC9B9",
">X c #FBC8B8",
",X c #FBD0BE",
"<X c #C0BFC0",
"1X c #82DDC9",
"2X c #B9CCCC",
"3X c #B1DACF",
"4X c #88E3CD",
"5X c #85E5D6",
"6X c #BFE7DF",
"7X c #D8DADA",
"8X c #CBCACF",
"9X c #FED5C3",
"0X c #FEDCCA",
"qX c #FFCED7",
"wX c #EDD0D0",
"eX c #FDE1D4",
"rX c #D8DEE1",
"tX c #CAE6E4",
"yX c #EAE9E8",
"uX c #FBECE8",
"iX c #FCFDFD",
"pX c #F7F8F7",
"aX c #E8F0F1",
"sX c None",
/* pixels */
"sXsXsXsXsXsXsXsXsXsXsXsXsXsXsXsXsXsXsXsXsXsXsXsXsXsXsXsXsXsXsXsX",
"sXsXsXsXsXsXsXsXsXsXsXsXsXsXsXsXsXsXsXsXsXsXsXsXsXsXsXsXsXsXsXsX",
"sXsXsXsXsXsXsXsXsXf z m l l l z B B v u sXsXsXsXsXsXsXsXsXsXsXsX",
"sXsXsXsXsXsXsXsX%.&.f.d.*.*.*.*.f.=.0.e.sXsXsXsXsXsXsXsXsXsXsXsX",
"sXsXsXsXsXsXsXo.[.+X+X+Xl.l.k.k.k.}.y.u.c o R { d sXsXsXsXsXsXsX",
"sXsXsXsXsXsXs o.l.oXoXz.z.z.z.z.z.{.y.y.] , E E 7 3 sXsXsXsXsXsX",
"sXsXsXsXsXsXm *.k.2.,.` / <.3.].OX[.4.;.F A S * < , sXsXsXsXsXsX",
"sXsXsXsXsXs X.o.} W A D H 4.].%X9X=X+.F ;.1.[ j 7 , sXsXsXsXsXsX",
"sXsXsXsXsX2 P { k P G } 4..X;XeXpXrXq.P '.$X|.q.x % sXsXsXsXsXsX",
"sXsXsXsX+ 2 G I P 5 5 [ }.;X,XuXiXrXm.P  X>X:X#X~.E.sXsXsXsXsXsX",
"sXsXsXsXX 6 -.:.-.I % ' |.,X9XeXuXwXq.] XX%X;X,X0X:Xq.q sXsXsXsX",
"sXsXsXsXX k } :.1.:.' #.$X9X9X9X:X|.@.' 1.}. X*X0XwXE.c sXsXsXsX",
"sXsXsXsX@ h r [ 1.'.'.@X:X,X0X:XW.B # . S G ] #.|.W.#.x sXsXsXsX",
"sXsXsXsX# $ + q ..'.$X>X,X,X9X$Xw.B b | [ [ ' k b b b sXsXsXsXsX",
"sXsXsXsXsX.   . I 1. X;X;X;X;X%X$X@X@X@X$X@XW.#.x sXsXsXsXsXsXsX",
"sXsXsXsXsXsX2 { -.2.]..X.X.X X X&X%X%X>XeXeX:X~.B sXsXsXsXsXsXsX",
"sXsXsXsXsXsXd.l.[.oX{.3.3.k.Q.Q.l.3.{.>XuXpXyX#Xf.sXsXsXsXsXsXsX",
"sXsXsXsXsX`.#X=XOXz.h._ Q ( d.d.( <.OXqXiXiXpX7X_.sXsXsXsXsXsXsX",
"sXsXsXsX2XrXyXqXz.^ Q ! Q / g.g.^ {.eXiXiXiXiXyX2XY.sXsXsXsXsXsX",
"sXsXsXY.7XiXaXqXk.! ! ~ ~ ) <.2.) +XuXiXiXaXuXrX`.Y.sXsXsXsXsXsX",
"sXsXV _.7XyX2X_.d.,.j.1.*.&.O.*.o.(.7XaXaXrX8X`.Y.sXsXsXsXsXsXsX",
"sXsXC ^.#X#XM.b.m.Y._._.!.M.M.T.!.).3X6X6X3XY.s.sXsXsXsXsXsXsXsX",
"sXsXq c b V C n.Z.P.1X5X4XL.1X4X5XL.5X4X5XP.b.a sXsXsXsXsXsXsXsX",
"sXsX& % . O M C.J.K.I.I.U.U.U.U.U.U.U.I.H.v.i.sXsXsXsXsXsXsXsXsX",
"sX= : : O g n.S.L.U.J.S.S.S.V.S.S.K.5X5XZ.B.sXsXsXsXsXsXsXsXsXsX",
"$ 8 J P  .V N.V.P.A.Z.n.n.n.n.n.n.Z.L.P.N.a.sXsXsXsXsXsXsXsXsXsX",
". ; Y 8.r.w.s.i.B.b.M M N m N N C M v.c.sXsXsXsXsXsXsXsXsXsXsXsX",
". 0 Y 8.r.w.C i g Z h = 4 5 5 5 P x B n sXsXsXsXsXsXsXsXsXsXsXsX",
"sX; U T 7.0.sXsXp 2 4 9 K K K K L 7.r.r.U sXsXsXsXsXsXsXsXsXsXsX",
"sXsXy e U sXsXsXsX% : 9 9 J 9 9 L 5.9.9.U sXsXsXsXsXsXsXsXsXsXsX",
"sXsXsXsXsXsXsXsXsXsX- 8 0 0 - 0 8 e 6.6.sXsXsXsXsXsXsXsXsXsXsXsX",
"sXsXsXsXsXsXsXsXsXsX1 1 1 1 1 1 1 w t t sXsXsXsXsXsXsXsXsXsXsXsX"
};
