/* XPM */
static char *result[] = {
/* columns rows colors chars-per-pixel */
"16 16 172 2 ",
"   c black",
".  c #000038",
"X  c #2A0039",
"o  c #00262C",
"O  c #002C30",
"+  c #002D31",
"@  c #2D223C",
"#  c #2D3A38",
"$  c #790000",
"%  c #6A1700",
"&  c #670011",
"*  c #73001D",
"=  c #533800",
"-  c #5A3C1D",
";  c #7D3D00",
":  c #661A34",
">  c #553B26",
",  c #432037",
"<  c #4F2B31",
"1  c #592A35",
"2  c #4F3C3C",
"3  c #53393A",
"4  c #7E4306",
"5  c #7E4C00",
"6  c #65421F",
"7  c #5A4127",
"8  c #544029",
"9  c #554133",
"0  c #754C27",
"q  c #7D5424",
"w  c #654D35",
"e  c #77483B",
"r  c #6F7C3C",
"t  c #372E68",
"y  c #5E5148",
"u  c #5F555C",
"i  c #634F47",
"p  c #724745",
"a  c #6C554E",
"s  c #7F515D",
"d  c gray47",
"f  c #797979",
"g  c gray48",
"h  c #7F7D7D",
"j  c #830002",
"k  c #AB001D",
"l  c #BF003B",
"z  c #9A3F31",
"x  c #DB0000",
"c  c #CF0038",
"v  c #F5003E",
"b  c #8D5A13",
"n  c #A97700",
"m  c #814F2C",
"M  c #805638",
"N  c #967D34",
"B  c #8A3B61",
"V  c #FB0040",
"C  c #93544F",
"Z  c #834654",
"A  c #984553",
"S  c #A95148",
"D  c #B55150",
"F  c #805464",
"G  c #865D6A",
"H  c #896F67",
"J  c #967F74",
"K  c #A7697E",
"L  c #DB5F5A",
"P  c #D34265",
"I  c #FC5472",
"U  c #FB5F78",
"Y  c #EF6963",
"T  c #AF8100",
"R  c #9F8377",
"E  c #E5BE54",
"W  c #EEB473",
"Q  c #00238A",
"!  c #142789",
"~  c #1B438E",
"^  c #1D438D",
"/  c #597EAC",
"(  c #8C7AA5",
")  c #FD6C81",
"_  c #FE6D84",
"`  c #FF6397",
"'  c #FF799F",
"]  c #FA7F9D",
"[  c #008394",
"{  c #148AA2",
"}  c #00AFA4",
"|  c #648582",
" . c #728380",
".. c #6E908F",
"X. c #539FA8",
"o. c #56A7AD",
"O. c #58A7A9",
"+. c #51A8AE",
"@. c #47AAB2",
"#. c #52A0B0",
"$. c #6BB1AF",
"%. c #61B5B1",
"&. c #68B6B4",
"*. c #59D3C2",
"=. c #63DDC7",
"-. c #6ED3C9",
";. c #76D6C7",
":. c #79D1C1",
">. c #79D7C6",
",. c #60E0CC",
"<. c #7EE0CD",
"1. c #808181",
"2. c #868383",
"3. c gray52",
"4. c #B5818C",
"5. c #8CB39D",
"6. c #A6A79A",
"7. c #BCAE9E",
"8. c #899BA2",
"9. c #92A7AD",
"0. c #AAA4B2",
"q. c #D38B80",
"w. c #FF8B8F",
"e. c #E78396",
"r. c #FF9797",
"t. c #FFA195",
"y. c #FEA896",
"u. c #FF80A0",
"i. c #FF84A4",
"p. c #FF8CAC",
"a. c #FF95AF",
"s. c #F09BAA",
"d. c #FF98AC",
"f. c #FFAEA1",
"g. c #E3BCAD",
"h. c #FFB0A2",
"j. c #FEB5A6",
"k. c #EDC7B7",
"l. c #EEC8B9",
"z. c #F7C0B0",
"x. c #F7C4B1",
"c. c #F8CCBB",
"v. c #FBCDBC",
"b. c #FFCCBC",
"n. c #81D7C6",
"m. c #86DFCA",
"M. c #80E1CD",
"N. c #81E1CD",
"B. c #83E3CD",
"V. c #83E8D6",
"C. c #83EEDE",
"Z. c #98E6DA",
"A. c #C8C4C6",
"S. c #CFC4C8",
"D. c #CCCBCD",
"F. c #CFD0CF",
"G. c #E9CEC5",
"H. c #FBD0C0",
"J. c #FED2C1",
"K. c #FFD9C9",
"L. c #FFDECC",
"P. c #E7E7D7",
"I. c #FFE9DA",
"U. c #D5F3F4",
"Y. c #DFF3F0",
"T. c #ECE9E7",
"R. c #FFECF1",
"E. c #F8F8F8",
"W. c #FBFFFF",
"Q. c #FEFEFE",
"!. c white",
"~. c None",
/* pixels */
"~.~.~.~.~.~.~.~.~.~.~.~.~.~.~.~.",
"~.~.~.~.~.u G s F H r ~.~.~.~.~.",
"~.~.~.~.Z a.p.u.` w.W X A 1 ~.~.",
"~.~.~.~.K P k v r.s.c l & : ~.~.",
"~.~.~.+ z 9 S y.I.U.m z.7.i ~.~.",
"~.~.~.O Y D * v.K.G.C t.b.L.a ~.",
"~.~.~.# 3 q.g.J.c.y < j p J ~.~.",
"~.~.~.2 o L h.j.f.k.l.H.R ~.~.~.",
"~. .4.' ] i.9.*.I U #./ 6.2.g ~.",
"h !.R.d.) V 8.Z.n._ e.S.!.!.Q.3.",
"1.E.!.W.0.B $.Y.>.C.T.x x.P.A.f ",
"d F.D.( [ -.;.=.<.:.,.} T n   ~.",
"~.~.. { m.B.M.&.%.N.V.5.$ M w ~.",
"~.8 0 ..@.X.o.~ ^ O.+.| ; q - ~.",
"~.7 5 4 e , @ ~.~.! Q t = > ~.~.",
"~.~.6 b % E N ~.~.~.~.~.~.~.~.~."
};
