/* XPM */
static char *result[] = {
/* columns rows colors chars-per-pixel */
"32 32 231 2 ",
"   c black",
".  c #330E0B",
"X  c #001B22",
"o  c #000036",
"O  c #002329",
"+  c #193333",
"@  c #30302F",
"#  c #450000",
"$  c #4A1406",
"%  c #7A0000",
"&  c #62000D",
"*  c #492919",
"=  c #4F300A",
"-  c #683600",
";  c #773705",
":  c #673D16",
">  c #772D14",
",  c #5F0037",
"<  c #640C32",
"1  c #670024",
"2  c #4C393A",
"3  c #543130",
"4  c #6A393C",
"5  c #71293D",
"6  c #754707",
"7  c #6B451D",
"8  c #73481A",
"9  c #744833",
"0  c #704A2E",
"q  c #7C6335",
"w  c #457227",
"e  c #5D3A45",
"r  c #403A42",
"t  c #733643",
"y  c #006B5E",
"u  c #375470",
"i  c #084848",
"p  c #514B53",
"a  c #664A43",
"s  c #7E4845",
"d  c #634B54",
"f  c #66575E",
"g  c #755B59",
"h  c #70534D",
"j  c #7A635B",
"k  c #6D6552",
"l  c #5F5C74",
"z  c #725760",
"x  c #557273",
"c  c #746562",
"v  c #69736E",
"b  c #556E42",
"n  c #9C010C",
"m  c #8A040A",
"M  c #B00000",
"N  c #853200",
"B  c #BC0028",
"V  c #A60132",
"C  c #863A35",
"Z  c #A03934",
"A  c #C30000",
"S  c #EE001B",
"D  c #FF003E",
"F  c #DF202A",
"G  c #864B00",
"H  c #925D02",
"J  c #8B5819",
"K  c #986512",
"L  c #8B5A28",
"P  c #8E4A31",
"I  c #A6463C",
"U  c #966D2D",
"Y  c #947330",
"T  c #A3782F",
"R  c #A90046",
"E  c #8B344B",
"W  c #B9354E",
"Q  c #FE0152",
"!  c #F20F55",
"~  c #C7364F",
"^  c #FA215D",
"/  c #E22459",
"(  c #FF0762",
")  c #FF1F60",
"_  c #FE386B",
"`  c #FD3371",
"'  c #874746",
"]  c #9A554C",
"[  c #975954",
"{  c #954551",
"}  c #B14F4F",
"|  c #8B654E",
" . c #A86358",
".. c #875C69",
"X. c #955364",
"o. c #AB5F72",
"O. c #AE5468",
"+. c #947A75",
"@. c #8E6D6F",
"#. c #A96578",
"$. c #B3667B",
"%. c #AC756C",
"&. c #CE5251",
"*. c #E14E59",
"=. c #CF635C",
"-. c #C74A69",
";. c #FD4564",
":. c #EF516E",
">. c #D36E68",
",. c #E76577",
"<. c #FF677C",
"1. c #EE6E6A",
"2. c #788A7A",
"3. c #AD8837",
"4. c #99894A",
"5. c #AA915D",
"6. c #B1924B",
"7. c #9A837A",
"8. c #B29379",
"9. c #B9A26B",
"0. c #C6A552",
"q. c #EDAA71",
"w. c #D6AE69",
"e. c #1E7687",
"r. c #2D7488",
"t. c #507689",
"y. c #6C7B93",
"u. c #AE7584",
"i. c #B87488",
"p. c #D66B82",
"a. c #D27587",
"s. c #EB6988",
"d. c #FA6A8A",
"f. c #E87385",
"g. c #F97885",
"h. c #FD7798",
"j. c #ED7296",
"k. c #349DA7",
"l. c #528497",
"z. c #678C8F",
"x. c #4E96AA",
"c. c #518CA0",
"v. c #5BB7B9",
"b. c #52AEAE",
"n. c #69B1B5",
"m. c #4ECDBC",
"M. c #70C6BB",
"N. c #70B2C4",
"B. c #58C9C2",
"V. c #77D8C7",
"C. c #6CD3C7",
"Z. c #6DEAD7",
"A. c #4CE6D0",
"S. c #958D87",
"D. c #84988A",
"F. c #918C8E",
"G. c #AD9488",
"H. c #B9AB8E",
"J. c #949BB9",
"K. c #99BAB7",
"L. c #91ADAB",
"P. c #A9A4A6",
"I. c #B8A9A6",
"U. c #B6B8B4",
"Y. c #ADB3AD",
"T. c #CF9190",
"R. c #F5968B",
"E. c #EA839B",
"W. c #FA8796",
"Q. c #FA9395",
"!. c #E8958C",
"~. c #C5A89A",
"^. c #DFA698",
"/. c #EDA699",
"(. c #FBA397",
"). c #FFAD80",
"_. c #F68CA8",
"`. c #FE92A2",
"'. c #C9AAA4",
"]. c #DAB8A8",
"[. c #CAB5B1",
"{. c #E9B5A7",
"}. c #FCB8AA",
"|. c #FEA3B3",
" X c #F6B7B7",
".X c #EAAAAF",
"XX c #CF9AA4",
"oX c #8FC5B8",
"OX c #9AC4B8",
"+X c #A6C6BB",
"@X c #C2C7BC",
"#X c #FFC0AF",
"$X c #E9C9B8",
"%X c #FDC3B2",
"&X c #FCCBBB",
"*X c #F0C4B6",
"=X c #8DABC5",
"-X c #FFBECA",
";X c #8BC9C1",
":X c #8AD8C8",
">X c #99D9CC",
",X c #96D2CD",
"<X c #B6C4C3",
"1X c #B8D4D3",
"2X c #83E3CE",
"3X c #96E6D8",
"4X c #A6E4D9",
"5X c #B8E3DD",
"6X c #A6D9E0",
"7X c #99F4E1",
"8X c #B1EDE4",
"9X c #CEC4C5",
"0X c #DADDDD",
"qX c #D3C3C5",
"wX c #F7C6CC",
"eX c #FED5C3",
"rX c #FEDCCA",
"tX c #F8CCD5",
"yX c #E7DBDB",
"uX c #F2D3D5",
"iX c #FEE1D3",
"pX c #D4DEE1",
"aX c #C7E8E7",
"sX c #D3F3EE",
"dX c #EAEAEB",
"fX c #FEEBE4",
"gX c #FFEDF1",
"hX c #FFFEFE",
"jX c #F7F6F6",
"kX c #EEFAF8",
"lX c None",
/* pixels */
"lXlXlXlXlXlXlXlXlXlXlXlXlXlXlXlXlXlXlXlXlXlXlXlXlXlXlXlXlXlXlXlX",
"lXlXlXlXlXlXlXlXlXlXlXlXlXlXlXlXlXlXlXlXlXlXlXlXlXlXlXlXlXlXlXlX",
"lXlXlXlXlXlXlXlXlXi f z d d d f z g b w lXlXlXlXlXlXlXlXlXlXlXlX",
"lXlXlXlXlXlXlXlX#.@.u.u.u.o.$.$.$.8.5.4.lXlXlXlXlXlXlXlXlXlXlXlX",
"lXlXlXlXlXlXlXo.E._._._.h.j.j.s.s.!.q.q.k o E { t lXlXlXlXlXlXlX",
"lXlXlXlXlXlXe o.h._._.h.h.d.h.h.h.Q.q.q.] < E E 5 3 lXlXlXlXlXlX",
"lXlXlXlXlXlXz $.s.,.-.~ / _ <.W.Q.W.1.&.B n % & 1 < lXlXlXlXlXlX",
"lXlXlXlXlXe ..o.O.W n M F 1.R.}.wX.XO.B *.=.[ a 5 < lXlXlXlXlXlX",
"lXlXlXlXlX2 C E 9 C C } 1.).%XiXjX0X7.P !.{.H.7.g # lXlXlXlXlXlX",
"lXlXlXlXO 3 P } P 9 >  .!.#XrXfXkXpXz.L /.&X$X[.H.G.lXlXlXlXlXlX",
"lXlXlXlXX 4 =.*.&.} # ' ^.%XeXiXfXyX7.] !.#X%X&XrX$XS.a lXlXlXlX",
"lXlXlXlXO 9 } >.>.=.' +.$X&XrXeX&X~.@.' >.R./.*XrXwXG.9 lXlXlXlX",
"lXlXlXlX+ r 4 [ %.q.T.].$X&XrX$XH.g @ # m Z [ %.~.G.7.h lXlXlXlX",
"lXlXlXlX2 @ X e  .T.{.}.&X&X&X*X8.g c c [ [ s h j c k lXlXlXlXlX",
"lXlXlXlXlX@   * I >.(.}.#X%X%X#X{.].{.$X$X].~.7.g lXlXlXlXlXlXlX",
"lXlXlXlXlXlXr ' ~ ,./.}./.(.Q.(.$X$X X}.&X%X~.S.lXlXlXlXlXlXlXlX",
"lXlXlXlXlXlXu.a.:.f.'.[.!.g.;.g.+X@XR.<.g.!.@.y lXlXlXlXlXlXlXlX",
"lXlXlXlXlXX.a.j.` g.Y.K.XX:.Q ,.+X+X,.Q Q / V # lXlXlXlXlXlXlXlX",
"lXlXlXlXR -.j.d.( ,.I.K.T.f._ f.oXoXf.( ` ^ S M % lXlXlXlXlXlXlX",
"lXlXlXX.p.h.d.:.D :.I.+XU.'.T.'.oX=XT.:._ ^ ;.*.} 3 lXlXlXlXlXlX",
"lXlXz i..X|.d.Q S ,.].1X>X:X:X,X3X>XL.i.! ( h._.p.O.lXlXlXlXlXlX",
"lXlX@.[.tXtX|.h.;.>.qX5X7XZ.A.Z.8X5XL.F.s.W.-XwX XT...lXlXlXlXlX",
"lXlXF.9XdXjXgXwXXXI.1X8X4X:XC.3XaXaXK.I. XtXgXjXdX[.F.lXlXlXlXlX",
"lXlXF.U.dXhXhXdX<XK.6X4X4X>X:X>X8X8X,X+XyXgXhXjXpX<XlXlXlXlXlXlX",
"lXlXl P.0XhXhXkX1XN.V.C.V.2X2X2X2XZ.2X4XsXjXjXyXU.D.lXlXlXlXlXlX",
"lXlXlXF.[.0XdXaX,Xv.b.m.V.V.V.C.m.B.C.3XsXsXdX9XF.lXlXlXlXlXlXlX",
"lXlXlXlXlXJ.=XN.x.k.b.v.C.C.v.v.v.M.m.V.7X7X4XK.y.lXlXlXlXlXlXlX",
"lXlXlXlXlXl y.y.e.e.l.z.n.b.c.c.l.c.b.M.M.V.oXM.2.lXlXlXlXlXlXlX",
"lXlXlXlX4.5.w.9.g p f l x x r.u u f 2.2.2.z.H.H.9.6.lXlXlXlXlXlX",
"lXlXlXlX| 3.0.6.q 1 - : 0 2 lXlX. * 0 0 4 | 6.0.9.6.q lXlXlXlXlX",
"lXlX. 7 L T 3.T J ; 6 6 : * lXlX= = 0 7 > L U T T U 7 * lXlXlXlX",
"lXlX* 8 L K K H H 6 6 6 - $ lXlX= - - ; N N G H H J 8 * lXlXlXlX"
};
