/* XPM */
static char *result[] = {
/* columns rows colors chars-per-pixel */
"32 32 232 2 ",
"   c #000003",
".  c #380C0D",
"X  c #08241D",
"o  c #001C24",
"O  c #000037",
"+  c #3F142A",
"@  c #00252A",
"#  c #1A3737",
"$  c #322C2C",
"%  c #5C0000",
"&  c #640002",
"*  c #7C0000",
"=  c #513115",
"-  c #683900",
";  c #773500",
":  c #5A0030",
">  c #650E2B",
",  c #462329",
"<  c #563435",
"1  c #49303D",
"2  c #68222A",
"3  c #662838",
"4  c #653A37",
"5  c #773E3C",
"6  c #6F2F25",
"7  c #7A4300",
"8  c #784B18",
"9  c #69471D",
"0  c #5E4C2C",
"q  c #6E542A",
"w  c #734736",
"e  c #775839",
"r  c #644834",
"t  c #53703F",
"y  c #726532",
"u  c #00096B",
"i  c #37305C",
"p  c #40365B",
"a  c #753B41",
"s  c #613E48",
"d  c #244976",
"f  c #364A4D",
"g  c #594946",
"h  c #684A46",
"j  c #764548",
"k  c #644B55",
"l  c #6A5A58",
"z  c #725451",
"x  c #5B6A47",
"c  c #69655D",
"v  c #776B59",
"b  c #4B4D6A",
"n  c #635F61",
"m  c #586A68",
"M  c #7A6861",
"N  c #990007",
"B  c #8F030C",
"V  c #B80900",
"C  c #803100",
"Z  c #B50027",
"A  c #8D322F",
"S  c #C00011",
"D  c #C10027",
"F  c #E72330",
"G  c #854901",
"H  c #8C5314",
"J  c #A64437",
"K  c #A74C2E",
"L  c #8E6F2F",
"P  c #8E5D34",
"I  c #D14135",
"U  c #8E0C48",
"Y  c #8D374B",
"T  c #B12945",
"R  c #C91D54",
"E  c #EB074B",
"W  c #FD0056",
"Q  c #FF125C",
"!  c #DC3764",
"~  c #FA2463",
"^  c #F93B6A",
"/  c #E93261",
"(  c #CD3451",
")  c #964B47",
"_  c #965852",
"`  c #91464D",
"'  c #BA524A",
"]  c #AE5758",
"[  c #82755D",
"{  c #956453",
"}  c #BB6A5F",
"|  c #A45A6E",
" . c #B45471",
".. c #8E6762",
"X. c #966475",
"o. c #93776F",
"O. c #A56577",
"+. c #B26479",
"@. c #BB7573",
"#. c #8A4C74",
"$. c #CE5A57",
"%. c #E4625A",
"&. c #C74B67",
"*. c #D0566B",
"=. c #FD486B",
"-. c #FB4974",
";. c #FC5677",
":. c #F05874",
">. c #C96462",
",. c #CE7870",
"<. c #EF6C70",
"1. c #B18735",
"2. c #C7A33E",
"3. c #AF9747",
"4. c #B1944C",
"5. c #998578",
"6. c #878378",
"7. c #A68278",
"8. c #AF826F",
"9. c #948C47",
"0. c #C29E44",
"q. c #C2A34B",
"w. c #D5B457",
"e. c #DD9961",
"r. c #C9A665",
"t. c #F3AC79",
"y. c #EB8376",
"u. c #E8C760",
"i. c #001F87",
"p. c #145B8C",
"a. c #005997",
"s. c #0D4988",
"d. c #31518D",
"f. c #076C9B",
"g. c #3A74A5",
"h. c #38668E",
"j. c #457597",
"k. c #4E708B",
"l. c #717A94",
"z. c #5A5C90",
"x. c #995E81",
"c. c #BB7483",
"v. c #AD6B84",
"b. c #8B6785",
"n. c #EC5F92",
"m. c #D86883",
"M. c #CB7C8C",
"N. c #DC748D",
"B. c #CF768C",
"V. c #ED6386",
"C. c #FC6C8C",
"Z. c #E87786",
"A. c #FA7983",
"S. c #EE7596",
"D. c #FC789A",
"F. c #FF6D98",
"G. c #299CB7",
"H. c #708E94",
"J. c #79A993",
"K. c #5C93AC",
"L. c #4F8DA8",
"P. c #54B7BA",
"I. c #73B0B3",
"U. c #5DA7C0",
"Y. c #70B1C6",
"T. c #21E4CE",
"R. c #57D6C8",
"E. c #6CD7C4",
"W. c #79DAC9",
"Q. c #73D1C8",
"!. c #66E4D3",
"~. c #76E7D5",
"^. c #988896",
"/. c #AB9492",
"(. c #85AE96",
"). c #B5A091",
"_. c #BC9EA5",
"`. c #A798A4",
"'. c #91AEB0",
"]. c #ADACB3",
"[. c #CE978C",
"{. c #E89787",
"}. c #F69A8E",
"|. c #E8849B",
" X c #FA8896",
".X c #E49996",
"XX c #FE9993",
"oX c #E08188",
"OX c #C2A497",
"+X c #EBAB9E",
"@X c #FDA59A",
"#X c #EEA08E",
"$X c #CB97A1",
"%X c #F589A6",
"&X c #FA94A7",
"*X c #DAB9A9",
"=X c #CEB0B0",
"-X c #E7A9A8",
";X c #E6B7A7",
":X c #FFBDAD",
">X c #F7B6A9",
",X c #F3BCB3",
"<X c #87CBBC",
"1X c #E4C4B5",
"2X c #E6C8BB",
"3X c #F9C9B8",
"4X c #AABFC8",
"5X c #F1BCC3",
"6X c #85DACA",
"7X c #98D8CB",
"8X c #AAD8D6",
"9X c #B4D9D5",
"0X c #AACDCB",
"qX c #8BE7D6",
"wX c #B6E5DC",
"eX c #98EEE3",
"rX c #ADEDE1",
"tX c #CDD2D1",
"yX c #FECEC7",
"uX c #FFD8C7",
"iX c #FCD6C6",
"pX c #FFCAD0",
"aX c #C6E4DD",
"sX c #F9E4DA",
"dX c #FFE1CF",
"fX c #C8EDE6",
"gX c #C4F1E7",
"hX c #D4F2EC",
"jX c #E8ECEC",
"kX c #F9F9F9",
"lX c #EFF4EF",
"zX c None",
/* pixels */
"zXzXzXzXzXzXzXzXzXzXzXzXzXzXzXzXzXzXzXzXzXzXzXzXzXzXzXzXzXzXzXzX",
"zXzXzXzXzXzXzXzXzXzXzXzXzXzXzXzXzXzXzXzXzXzXzXzXzXzXzXzXzXzXzXzX",
"zXzXzXzXzXzXzXzXzXzXzXf n l k k k n M c x zXzXzXzXzXzXzXzXzXzXzX",
"zXzXzXzXzXzXzXzXzXzXx.x.c.v.c.+.+.+.@.8.4.9.zXzXzXzXzXzXzXzXzXzX",
"zXzXzXzXzXzXzXzXzXO.|.&X%X%X XS.n.n.Z.{.t.r.x O Y ) a zXzXzXzXzX",
"zXzXzXzXzXzXzXzXa +.%X%X%X XD.A.F.D. XXXt.e.) : Y Y 3 , zXzXzXzX",
"zXzXzXzXzXzXzXzXX.c.m.:.&.( E =.C. X&XS.%.I Z N B & : 3 zXzXzXzX",
"zXzXzXzXzXzXzXs X.v.T T N V F <.@X:X5X-X&.S $.*._ h 3 : zXzXzXzX",
"zXzXzXzXzXzX@ < ` ) 5 5 A $.<.@X3XsXjXtXo.K #X-X).^.g zXzXzXzXzX",
"zXzXzXzXzXzX@ < J K w 4 A } #X3XdXlXlXaX6.{ -X3X*X*X).5.zXzXzXzX",
"zXzXzXzXzXzXo 4 %.%.' A & _ +XuXdXdXsXtXo.' }.:X3X3XdX2X5.. zXzX",
"zXzXzXzXzX$ @ h $.%.>.] ) 7.1XuXiXiX2XOX..) ,.}.+X3XdX2X5., zXzX",
"zXzXzXzXzX$ # s a _ @.[.[.*X3XuXuX1X/.g , % B J { @.OX).6.zXzXzX",
"zXzXzXzXzXzX0 # o h @.{.;X3X3X3X3X;X7.l M ..{ _ j h v M zXzXzXzX",
"zXzXzXzXzXzXzXX   2 ' y.@X:X:X:X3X>X*X*X*X*X3X;X).o.v zXzXzXzXzX",
"zXzXzXzXzXzXzX+ 1 ` >.A.+X>X@X}.}.@X>X3X2X2XiX2X).5.zXzXzXzXzXzX",
"zXzXzXzXzXzXzXs v.N.|.%X_.$XoX:.=.=.A..X].I.b.v.zXzXzXzXzXzXzXzX",
"zXzXzXzXzXzXzX| N.D.D.S.$X/.M.B.<.<.=.V.`.K.f.i.zXzXzXzXzXzXzXzX",
"zXzXzXzXzXzXO.B.S.C.-.-.V.M.`.'.0X*XC.^ |._.I.G.p.zXzXzXzXzXzXzX",
"zXzXzXzXzXj | m.V.V.Q W ^ oX'.R.eXaX$XoX-X=X9XY.g.u zXzXzXzXzXzX",
"zXzXzXzXzXzX6 T / ^ ~ ^ *.^.P.W.gXfX7X<X9XaXfX9XK.a.zXzXzXzXzXzX",
"zXzXzXzXzXzX, U R ~ Q -.m.`.<XqXhXwX!.T.~.rXgX9XY.f.s.zXzXzXzXzX",
"zXzXzXzXzXp b #.&./ W -.C.-XtXrXwX8X6XE.W.qX6XE.U.g.d.zXzXzXzXzX",
"zXzXzXzXzXzXd.z.x.&.E =.&XpXjXhXwX7X6XW.W.E.R.P.K.j.zXzXzXzXzXzX",
"zXzXzXzXzXzXs.h.j.b.Z <.pXlXkXkXhXwXqXE.~.W.Q.P.g.d.zXzXzXzXzXzX",
"zXzXzXzXzXzXzXa.f.j.U B.tXjXlXjXaX7X6XE.W.Q.I.K.j.zXzXzXzXzXzXzX",
"zXzXzXzXzXzXzXzXa.d.z.l.].4X4X4X'.J.J.(.(.J.k.d u zXzXzXzXzXzXzX",
"zXzXzXzXzXzXzXzXzXd p.j.l.H.H.H.m x v [ [ [ z P P zXzXzXzXzXzXzX",
"zXzXzXzXzXzXzXzXzXp b m n l c l r 6 2 2 2 P 1.q.3.3.zXzXzXzXzXzX",
"zXzXzXzXzXzXzXzXzX= r h 9 - - ; ; G H H & ; 1.2.q.3.zXzXzXzXzXzX",
"zXzXzXzXzXzXzXzXzX= 0 8 8 G ; G H 1.w.0.q . L L 9.zXzXzXzXzXzXzX",
"zXzXzXzXzXzXzXzXzX= - 7 G G G H P 4.u.w.y   r e q zXzXzXzXzXzXzX"
};
