/* XPM */
static char *result[] = {
/* columns rows colors chars-per-pixel */
"32 32 221 2 ",
"   c #3A0105",
".  c #35170D",
"X  c #00301F",
"o  c #48000A",
"O  c #610000",
"+  c #593900",
"@  c #573B1C",
"#  c #49350E",
"$  c #793A00",
"%  c #6C2F08",
"&  c #462C2C",
"*  c #4A3623",
"=  c #563C22",
"-  c #563B32",
";  c #4E3730",
":  c #76372A",
">  c #64431E",
",  c #6D4416",
"<  c #774C1A",
"1  c #78501D",
"2  c #5A4225",
"3  c #694924",
"4  c #744D21",
"5  c #775326",
"6  c #7B563D",
"7  c #6A4637",
"8  c #7B673A",
"9  c #31245C",
"0  c #1D1A79",
"q  c #231C79",
"w  c #753A45",
"e  c #423C61",
"r  c #623B60",
"t  c #384A46",
"y  c #3F7D77",
"u  c #595855",
"i  c #435A55",
"p  c #67504E",
"a  c #7C5644",
"s  c #795B58",
"d  c #5D685B",
"f  c #595667",
"g  c #51766F",
"h  c #6C6C6C",
"j  c #676767",
"k  c #636D71",
"l  c #757879",
"z  c #677570",
"x  c #6C5B61",
"c  c #8B1E00",
"v  c #863600",
"b  c #8E2A00",
"n  c #A72F33",
"m  c #C50000",
"M  c #EB0009",
"N  c #E71E3A",
"B  c #844C11",
"V  c #886500",
"C  c #AC7300",
"Z  c #845127",
"A  c #865A37",
"S  c #874529",
"D  c #876E36",
"F  c #A43D56",
"G  c #963855",
"H  c #C3005A",
"J  c #E7004E",
"K  c #D6354D",
"L  c #EE0170",
"P  c #CC3369",
"I  c #EE3972",
"U  c #865654",
"Y  c #B35257",
"T  c #927F49",
"R  c #B0536D",
"E  c #99606F",
"W  c #81746D",
"Q  c #956771",
"!  c #8C7E7B",
"~  c #987D76",
"^  c #8D6F65",
"/  c #AD6878",
"(  c #BC677C",
")  c #B17A74",
"_  c #975A67",
"`  c #F15158",
"'  c #CB526F",
"]  c #F6586D",
"[  c #D66265",
"{  c #EF6E69",
"}  c #FB666A",
"|  c #FE6A72",
" . c #F4647A",
".. c #F8777A",
"X. c #DA4E53",
"o. c #6F8573",
"O. c #B6860C",
"+. c #AD8C39",
"@. c #9C8551",
"#. c #A58B4A",
"$. c #A19B54",
"%. c #AB8D4E",
"&. c #958174",
"*. c #978A7F",
"=. c #868E70",
"-. c #B3AB7E",
";. c #C8A858",
":. c #D5AB51",
">. c #CA9271",
",. c #E7986D",
"<. c #C7B161",
"1. c #CDAF6B",
"2. c #E4AB72",
"3. c #25208E",
"4. c #292792",
"5. c #004586",
"6. c #314E81",
"7. c #007193",
"8. c #2A6899",
"9. c #43798C",
"0. c #C77E82",
"q. c #D67782",
"w. c #DB6285",
"e. c #FD7983",
"r. c #F4778D",
"t. c #0F9CA7",
"y. c #2E9DA5",
"u. c #57948F",
"i. c #6D8280",
"p. c #7D8B8E",
"a. c #799FA4",
"s. c #5CA7B6",
"d. c #6CA8A3",
"f. c #7AB5AD",
"g. c #69B8B2",
"h. c #65C4C1",
"j. c #858181",
"k. c #898787",
"l. c #9B8B87",
"z. c #93928C",
"x. c #999897",
"c. c #8D9191",
"v. c #A28E84",
"b. c #B49A95",
"n. c #94AAA8",
"m. c #86B6A0",
"M. c #A7A6A7",
"N. c #B2ACAC",
"B. c #B3B2B3",
"V. c #BDBBB9",
"C. c #B5B5AB",
"Z. c #B5AC86",
"A. c #C88894",
"S. c #DB959E",
"D. c #CC918C",
"F. c #E6888A",
"G. c #F8878A",
"H. c #FF8D92",
"J. c #E89E91",
"K. c #FA9795",
"L. c #EE9389",
"P. c #CCA99B",
"I. c #EBAC9E",
"U. c #FFA49C",
"Y. c #C19CA0",
"T. c #E89DA7",
"R. c #FD9AA8",
"E. c #D5A9A4",
"W. c #C3B0A9",
"Q. c #D9B6A8",
"!. c #CAB8B9",
"~. c #D4B5B9",
"^. c #CDAAB0",
"/. c #E8A8AB",
"(. c #FAB7AA",
"). c #E7B6B7",
"_. c #FAB8B6",
"`. c #87C4B9",
"'. c #B3C3AE",
"]. c #E8C7B5",
"[. c #F4C5B4",
"{. c #FCC1B0",
"}. c #FFCDBE",
"|. c #F7C9BA",
" X c #FFD2BE",
".X c #CFCCA1",
"XX c #FFBAC2",
"oX c #95CAC4",
"OX c #8AD5C8",
"+X c #9EDFD7",
"@X c #9BD6C9",
"#X c #B7DCD7",
"$X c #B0D4CA",
"%X c #8EE3D5",
"&X c #93E1D5",
"*X c #A9F0DE",
"=X c #ACE4D8",
"-X c #8DFAEE",
";X c #8EE8E0",
":X c #B6EBE4",
">X c #B3F0E3",
",X c #C6C4C4",
"<X c #CAC9CA",
"1X c #D3DDDB",
"2X c #CCCFCE",
"3X c #F9C1CC",
"4X c #FFD8C4",
"5X c #F6CED1",
"6X c #F3DCDC",
"7X c #CEE2DA",
"8X c #DCE8E6",
"9X c #C0F2EA",
"0X c #D1FDF8",
"qX c #C6E9E6",
"wX c #EAE8E9",
"eX c #FCE4E7",
"rX c #F5F3F3",
"tX c #FEFDFD",
"yX c #F5FAFA",
"uX c #F6F2F4",
"iX c None",
/* pixels */
"iXiXiXiXiXiXiXiXiXiXiXiXiXiXiXiXiXiXiXiXiXiXiXiXiXiXiXiXiXiXiXiX",
"iXiXiXiXiXiXiXiXiXiXiXiXiXiXiXiXiXiXiXiXiXiXiXiXiXiXiXiXiXiXiXiX",
"iXiXiXiXiXiXiXiXiXiXiXiXiXiXiXiXiXiXiXiXiXiXiXiXiXiXiXiXiXiXiXiX",
"iXiXiXiXiXiXiXiXiXiXiXiXiXiXiXiXiXiXiXiXiXiXiXiXiXiXiXiXiXiXiXiX",
"iXiXiXiXiXiXiXiXiXiXQ E F Y #.$.$.@.Y U _ E iXiXiXiXiXiXiXiXiXiX",
"iXiXiXiXiXiXiXiXiXj Q R P [ ;.<.<.>.[ P ( E iXiXiXiXiXiXiXiXiXiX",
"iXiXiXiXiXiXiXk.u.g G H L  .,.2.2.,.} L ' R o X j.l.k.iXiXiXiXiX",
"iXiXiXiXiXz.B.B.n.c./ P I  .,.2.2.,. .I w.' w h B.V.M.x.c.iXiXiX",
"iXiXiXx.B.<X1X1X,X^.A.0.( / [ D.F.0./ / 0.b./ b.1X8X2X,X,XV.x.iX",
"iXiXl M.<XrXrXwX).T.).^.z.9.b.S.S.F.9.k.~.XXq.S.wXyXwXwXwX2Xx.h ",
"iXiXj.B.wXuXrX5X..e.eXwXa.o.E.{.(.E.9.n.wXeXe. .5XuXyXyXtX8XM.h ",
"iXiXj.,XrXtXuXXX` ] 5X8Xn.x.]. X X].x.n.wX6X| ` XXeXtXtXtXwXM.l ",
"iXiXj.<XtXtXeX_.} ` P.V.W.Q.|.4X4X|.Q.C.W.E.` | XXeXtXyXtXuXB.l ",
"iXiXj.B.1XuX3XR.e.{ >.*.b.Q.[.4X X[.Q.b.*.) { G.R.XXeXuXuX1XM.h ",
"iXiXiXx.n.V.A.r.H.G.&.s u ~ I._.{./.~ u h ) G.H.r.r.S.!.V.n.c.iX",
"iXiXiXiXg k G ' G.J.D.&.t p >.J.J.>.p t &.D.K.G.I J Y ^ j g iXiX",
"iXiXiXiXiXiXiXG [ L.(.Q.&.p s U U s u *.Q.(.K.] N m n iXiXiXiXiX",
"iXiXiXiXiXiXiXw Y L._.{.P.*.! l W &.v.P.{.(.H.] X.n iXiXiXiXiXiX",
"iXiXiXiXiXiXiXx ' G.K.(.[.].].].).].].[.(.K.e. .F.) r iXiXiXiXiX",
"iXiXiXiXiXiXo.x.Y.E.).[.}.4X}. X}.}.4X}.)./.T./.^.N.z.iXiXiXiXiX",
"iXiXiXiXiX@.Z.'.#X:X>X7X_.U.U.U.U.U.U.(.7X>X#X2X$X$XC.Z.iXiXiXiX",
"iXiXiXiXV %.1..X$X%X-X>X~.G...| | ..G.~.>X-X&X`.oX'..X1.@.iXiXiX",
"iXiXiXiX#.%.:.%.=.d.OX=X^.r.` M M { F.!.=X%Xm.=.h ^ 1.:.#.D iXiX",
"iXiXiXiX@.+.O.C $ d d.oX$X~.q.K K [ !.2X@Xf.o.% O v O.+.+.8 iXiX",
"iXiXiXiX2 3 5 B v U g f.7X8X!.Y.Y.!.8XqX`.o.U c Z A 1 < > = iXiX",
"iXiXiXiX    & : b S i d.:X0X:X$X$X:X0X9Xg.g : c A 8 % o   . iXiX",
"iXiXiXiX@ > 3 1 $ a z f.#X:X>X*X*X:X9X#Xf.g A v Z 5 < , > @ iXiX",
"iXiXiXiX> 3 5 1 $ a o.d.oX+X&X%X%X+X+XOXd.z 6 B < < 1 1 > 2 iXiX",
"iXiXiXiXiX2 3 1 $ a k d.g.h.s.s.s.s.h.g.u.k a v < 4 < > @ iXiXiX",
"iXiXiXiXiXiX2 > $ 7 f 8.y.t.7.5.5.7.t.y.9.f 7 % , 3 2 @ iXiXiXiX",
"iXiXiXiXiXiXiX= + 2 e 6.8.8.iXiXiXiX8.8.6.e ; + @ = @ iXiXiXiXiX",
"iXiXiXiXiXiXiX* # ; 9 0 4.4.iXiXiXiX3.4.q 9 & # = = * iXiXiXiXiX"
};
