/* XPM */
static char *result[] = {
/* columns rows colors chars-per-pixel */
"16 16 144 2 ",
"   c #000011",
".  c #00171B",
"X  c #3D3313",
"o  c #2A0039",
"O  c #002C2F",
"+  c #002D31",
"@  c #393D3D",
"#  c #6D000E",
"$  c #710000",
"%  c #700F00",
"&  c #670011",
"*  c #73001D",
"=  c #7D2B00",
"-  c #400029",
";  c #661A34",
":  c #4F2C31",
">  c #592A35",
",  c #563B3D",
"<  c #6C4000",
"1  c #554133",
"2  c #674228",
"3  c #664D37",
"4  c #776032",
"5  c #7B6532",
"6  c #6F7C3C",
"7  c #000074",
"8  c #31007B",
"9  c #503F5C",
"0  c #5E5148",
"q  c #5F5353",
"w  c #5F555C",
"e  c #634F47",
"r  c #714643",
"t  c #6C554E",
"y  c #7F515D",
"u  c #5E527F",
"i  c #820000",
"p  c #AB001D",
"a  c #BF003B",
"s  c #9A3F31",
"d  c #C30032",
"f  c #CF0038",
"g  c #F5003E",
"h  c #814600",
"j  c #875000",
"k  c #814F2C",
"l  c #9D7432",
"z  c #FE0056",
"x  c #FF0058",
"c  c #E72461",
"v  c #F93B63",
"b  c #FF3769",
"n  c #93544F",
"m  c #834654",
"M  c #984553",
"N  c #A95148",
"B  c #B55150",
"V  c #805464",
"C  c #865D6A",
"Z  c #896F67",
"A  c #967F74",
"S  c #A7697E",
"D  c #DE615C",
"F  c #C94C6D",
"G  c #D34265",
"H  c #E65B77",
"J  c #EF5E7B",
"K  c #F45470",
"L  c #EF6963",
"P  c #FC657C",
"I  c #598870",
"U  c #CBA33C",
"Y  c #B99F4B",
"T  c #848E76",
"R  c #839178",
"E  c #EEB473",
"W  c #E5C560",
"Q  c #00448E",
"!  c #004A90",
"~  c #35558C",
"^  c #3F6590",
"/  c #2D799B",
"(  c #0078A0",
")  c #BC6982",
"_  c #AD7987",
"`  c #DB758E",
"'  c #FF6C8F",
"]  c #FF6397",
"[  c #4E86AD",
"{  c #679FAF",
"}  c #65B4BD",
"|  c #6CBDBA",
" . c #71B8C8",
".. c #34DDC8",
"X. c #60D4C2",
"o. c #68D5C3",
"O. c #75D7C4",
"+. c #7FD4C4",
"@. c #72E2D1",
"#. c #7AE2D2",
"$. c #A58D80",
"%. c #BCAE9E",
"&. c #869AAC",
"*. c #A29EA6",
"=. c #86A7B5",
"-. c #D38B80",
";. c #FF8B8F",
":. c #FF9797",
">. c #FFA195",
",. c #FEA896",
"<. c #FF80A0",
"1. c #FF86A8",
"2. c #FF8CAC",
"3. c #E19EA3",
"4. c #FF95AF",
"5. c #F09BAA",
"6. c #FF9AAB",
"7. c #FFAFA2",
"8. c #E4BCAD",
"9. c #FFB2A4",
"0. c #FFB3A4",
"q. c #EDC7B7",
"w. c #EDC8B8",
"e. c #F7C0B0",
"r. c #F8CCBB",
"t. c #FBCDBC",
"y. c #FFCCBC",
"u. c #A9DDD3",
"i. c #AAE2D8",
"p. c #ABEEE1",
"a. c #E9CEC5",
"s. c #FDD3C1",
"d. c #FDD4C3",
"f. c #FFD9C9",
"g. c #FFDECC",
"h. c #FFE9DA",
"j. c #C2EAE3",
"k. c #CBE8E1",
"l. c #CEEAE5",
"z. c #D8F4EE",
"x. c #D5F3F4",
"c. c #FAEFEE",
"v. c white",
"b. c None",
/* pixels */
"b.b.b.b.b.b.b.b.b.b.b.b.b.b.b.b.",
"b.b.b.b.b.w C y V Z 6 b.b.b.b.b.",
"b.b.b.b.m 4.2.<.] ;.E o M > b.b.",
"b.b.b.b.S G p g :.5.f a & ; b.b.",
"b.b.b.+ s 1 N ,.h.x.k e.%.e b.b.",
"b.b.b.O L B * t.f.a.n >.y.g.t b.",
"b.b.b.@ , -.8.s.r.0 : i r A b.b.",
"b.b.b.b.. D 0.9.7.q.w.d.$.b.b.b.",
"b.b.b.b.` 1.*.H v P { 8 b.b.b.b.",
"b.b.b.) ' z J | i.K 3. .7 b.b.b.",
"b.b.b.# c b _ o.z...p.l.( b.b.b.",
"b.b.b.u F x 6.k.u.+.O.X.[ b.b.b.",
"b.b.b.! / d c.v.j.@.#.} ~ b.b.b.",
"b.b.b.b.Q ^ &.=.I R T 9 b.b.b.b.",
"b.b.b.b.- q 3 2 = % $ U Y b.b.b.",
"b.b.b.b.X < j h l W   4 5 b.b.b."
};
