/* XPM */
static char *result[] = {
/* columns rows colors chars-per-pixel */
"16 16 157 2 ",
"   c #001719",
".  c #3C0000",
"X  c #30003A",
"o  c #00272A",
"O  c #002A2E",
"+  c #372C31",
"@  c #3D2C3B",
"#  c #353938",
"$  c #4F0000",
"%  c #68000D",
"&  c #502A00",
"*  c #4C3301",
"=  c #4E3018",
"-  c #563318",
";  c #763E00",
":  c #6B0031",
">  c #4B3A3C",
",  c #612B3A",
"<  c #60323F",
"1  c #723B3A",
"2  c #14423F",
"3  c #7B4D00",
"4  c #6A4332",
"5  c #624C32",
"6  c #6F4938",
"7  c #753F4C",
"8  c #4F5551",
"9  c #515155",
"0  c #7D505C",
"q  c #737C40",
"w  c #676E5E",
"e  c #786056",
"r  c #78625A",
"t  c #776C59",
"y  c #7E685E",
"u  c #626467",
"i  c #800000",
"p  c #A90017",
"a  c #803100",
"s  c #903E33",
"d  c #C8003D",
"f  c #E70028",
"g  c #EE003A",
"h  c #824600",
"j  c #945F00",
"k  c #96681E",
"l  c #9A6C1C",
"z  c #956623",
"x  c #CC0044",
"c  c #ED004A",
"v  c #FF0044",
"b  c #FF005A",
"n  c #FF2460",
"m  c #FF2B67",
"M  c #FF3069",
"N  c #954941",
"B  c #81524E",
"V  c #964352",
"C  c #82685F",
"Z  c #815663",
"A  c #876768",
"S  c #88616D",
"D  c #966173",
"F  c #996E79",
"G  c #957E74",
"H  c #CC5350",
"J  c #CE5D59",
"K  c #DC645F",
"L  c #C9466E",
"P  c #D65070",
"I  c #EF4E6C",
"U  c #EF5575",
"Y  c #FC5F79",
"T  c #A68D46",
"R  c #B39959",
"E  c #82837B",
"W  c #CDAA5C",
"Q  c #C98278",
"!  c #C4B06E",
"~  c #FBBC79",
"^  c #FF4680",
"/  c #CE7886",
"(  c #C77B8F",
")  c #EF6D80",
"_  c #EB7786",
"`  c #FF7C8F",
"'  c #FF6E90",
"]  c #FF6B99",
"[  c #FF7FA0",
"{  c #008797",
"}  c #7B959D",
"|  c #5685AE",
" . c #5194AB",
".. c #569CAA",
"X. c #5EA4AE",
"o. c #59C5BE",
"O. c #55CBBA",
"+. c #68C2BE",
"@. c #73CEBD",
"#. c #7EB6C4",
"$. c #5BDAC3",
"%. c #7CD5C5",
"&. c #67E1CD",
"*. c #78E0CB",
"=. c #79E9D7",
"-. c #B99E91",
";. c #9CB6B3",
":. c #A1A3A2",
">. c #ACA6AC",
",. c #BDB1A0",
"<. c #A1BDB1",
"1. c #A1BFB3",
"2. c #D09899",
"3. c #FF8C8D",
"4. c #FF9F92",
"5. c #FCA191",
"6. c #FFAB9D",
"7. c #FF8FAF",
"8. c #FF91AA",
"9. c #E5BAAB",
"0. c #FDB1A3",
"q. c #FDB6A7",
"w. c #FBBDAD",
"e. c #F5A5B0",
"r. c #FFB0BD",
"t. c #EEC5B5",
"y. c #F1C6B6",
"u. c #F7C5B5",
"i. c #FFC4B5",
"p. c #F7CFBE",
"a. c #88C3C5",
"s. c #9BD3C5",
"d. c #82E3CF",
"f. c #86E4D1",
"g. c #89ECD7",
"h. c #A6E0D3",
"j. c #AEE9E1",
"k. c #B2E5E2",
"l. c #CBD3D0",
"z. c #CFD5D5",
"x. c #F8D2C1",
"c. c #FFD2C1",
"v. c #FFD8C7",
"b. c #F7D8CD",
"n. c #FFDFCD",
"m. c #FFC3D1",
"M. c #E7DEDC",
"N. c #FFD4DC",
"B. c #EFE0DF",
"V. c #FFE2D0",
"C. c #CEEFEA",
"Z. c #FFEDF0",
"A. c #E2FBF7",
"S. c #E8FFFF",
"D. c #F4FFFD",
"F. c white",
"G. c None",
/* pixels */
"G.G.G.G.G.G.G.G.G.G.G.G.G.G.G.G.",
"G.G.G.G.9 S 0 Z A q G.G.G.G.G.G.",
"G.G.G.7 8.7.[ ] ` ~ X V , G.G.G.",
"G.G.G.D P p g 3.e.x d % : G.G.G.",
"G.G.O s 4 N 5.n.S.5 w.,.y G.G.G.",
"G.G.o K J $ u.v.b.B 4.i.V.C G.G.",
"G.G.# > Q 9.p.c.e + i 1 G r G.G.",
"G.G.G.  H 6.q.0.t.y.x.-.G.G.G.G.",
"G.G.G.( ^ 1._ b s.m I 2 G.G.G.G.",
"G.G.L ' v <.2.) @.U M f . G.G.G.",
"G.F m.Y c l.=.&.j.} n r./ G.G.G.",
"G.:.F.Z.>.k.h.%.C.;.N.F.z.G.G.G.",
"G.u M.D.a.O.*.d.$.f.A.B.E G.G.G.",
"G.G.G.| { ..+. .X.o.g.#.G.G.G.G.",
"G.G.T W < 6 8 G.@ t w ! R G.G.G.",
"G.= z l h 3 & G.* ; a j k - G.G."
};
