/* XPM */
static char *result[] = {
/* columns rows colors chars-per-pixel */
"32 32 239 2 ",
"   c #000100",
".  c #002F1F",
"X  c #001D24",
"o  c #000037",
"O  c #00242A",
"+  c #06342E",
"@  c #2B2D2B",
"#  c #391715",
"$  c #5D0000",
"%  c #430000",
"&  c #660002",
"*  c #780000",
"=  c #4F3313",
"-  c #6E3608",
";  c #5A0030",
":  c #65012A",
">  c #492628",
",  c #4C3729",
"<  c #573D23",
"1  c #513737",
"2  c #662838",
"3  c #773D3D",
"4  c #643E29",
"5  c #7A4803",
"6  c #764B17",
"7  c #64411C",
"8  c #56412A",
"9  c #5F4133",
"0  c #674724",
"q  c #744B27",
"w  c #79543A",
"e  c #724D2F",
"r  c #676B36",
"t  c #003253",
"y  c #392055",
"u  c #230071",
"i  c #2B3C74",
"p  c #693B45",
"a  c #344756",
"s  c #1F4C66",
"d  c #5E5A58",
"f  c #564E4F",
"g  c #674A45",
"h  c #764643",
"j  c #644B55",
"k  c #695958",
"l  c #745957",
"z  c #72514C",
"x  c #726759",
"c  c #4B6971",
"v  c #666769",
"b  c #756962",
"n  c #747475",
"m  c #7C766A",
"M  c #504964",
"N  c #990007",
"B  c #8F080F",
"V  c #B80900",
"C  c #832700",
"Z  c #813800",
"A  c #B50027",
"S  c #8D322F",
"D  c #C00011",
"F  c #F0003D",
"G  c #E72330",
"H  c #854900",
"J  c #87551A",
"K  c #865110",
"L  c #A45E00",
"P  c #A26300",
"I  c #845626",
"U  c #A64438",
"Y  c #A74C2E",
"T  c #916C28",
"R  c #CF442F",
"E  c #91364F",
"W  c #B52040",
"Q  c #B41B58",
"!  c #D23350",
"~  c #FF3C61",
"^  c #ED0E4F",
"/  c #964B47",
"(  c #944C5A",
")  c #90504F",
"_  c #B25553",
"`  c #91674F",
"'  c #BB6A5F",
"]  c #8A6765",
"[  c #89786B",
"{  c #966475",
"}  c #9D7A74",
"|  c #A56676",
" . c #B3657A",
".. c #BB7573",
"X. c #B05B79",
"o. c #CD5A56",
"O. c #E4635A",
"+. c #CB4E63",
"@. c #FE476A",
"#. c #F8556F",
"$. c #F35778",
"%. c #C96462",
"&. c #CC7771",
"*. c #EB776E",
"=. c #EF6C73",
"-. c #7B8A7A",
";. c #A7893C",
":. c #A28B59",
">. c #BFA042",
",. c #9A867A",
"<. c #878378",
"1. c #AD896C",
"2. c #A68379",
"3. c #B69460",
"4. c #948C47",
"5. c #C79A4B",
"6. c #D4AE4C",
"7. c #D19B62",
"8. c #E78F79",
"9. c #F3AC79",
"0. c #C9A665",
"q. c #E6C154",
"w. c #000085",
"e. c #1C3B8D",
"r. c #244F8E",
"t. c #305793",
"y. c #007088",
"u. c #275DA1",
"i. c #377095",
"p. c #537591",
"a. c #777586",
"s. c #81769F",
"d. c #B67186",
"f. c #DE6786",
"g. c #E66589",
"h. c #FA7586",
"j. c #E67494",
"k. c #FE7899",
"l. c #F37191",
"z. c #FF7DA3",
"x. c #EC5F92",
"c. c #378B9A",
"v. c #39B0AC",
"b. c #438698",
"n. c #4D939C",
"m. c #698589",
"M. c #748E95",
"N. c #6EA39B",
"B. c #4796A7",
"V. c #5598A8",
"C. c #4584A4",
"Z. c #5DA9AA",
"A. c #5BB9B9",
"S. c #52ACB3",
"D. c #6AAFB6",
"F. c #65B5B3",
"G. c #6CB1AD",
"H. c #559AA2",
"J. c #00C6B8",
"K. c #68C3BB",
"L. c #74C9BC",
"P. c #34D9C8",
"I. c #56D6C1",
"U. c #77CEC1",
"Y. c #7CDCCB",
"T. c #77D7C6",
"R. c #67D8C9",
"E. c #5FE7D3",
"W. c #7BE6D5",
"Q. c #76E4D1",
"!. c #9B888A",
"~. c #8A9287",
"^. c #9B9B9B",
"/. c #8C8B8C",
"(. c #B6988B",
"). c #AA898B",
"_. c #A698A5",
"`. c #A38CA3",
"'. c #8DADB2",
"]. c #A5A5A7",
"[. c #BBBBBA",
"{. c #B8B3B7",
"}. c #A9B4B1",
"|. c #A89CA3",
" X c #CE9891",
".X c #F69A8E",
"XX c #E9869C",
"oX c #F98998",
"OX c #F8989A",
"+X c #E5998A",
"@X c #C2A499",
"#X c #EBAA9D",
"$X c #FEA599",
"%X c #EEA08E",
"&X c #C797A4",
"*X c #F889A7",
"=X c #F794A6",
"-X c #EF97AB",
";X c #DAB9A9",
":X c #D1ACAC",
">X c #E8B5A6",
",X c #FFBAAB",
"<X c #F9B8AB",
"1X c #F3B1B2",
"2X c #86CBBB",
"3X c #E7C4B6",
"4X c #FAC8B9",
"5X c #E6C9AD",
"6X c #D0CEBD",
"7X c #A7B8C3",
"8X c #CCB8C7",
"9X c #F1BCC3",
"0X c #8DC8C4",
"qX c #87D4C5",
"wX c #94D9CA",
"eX c #92DED0",
"rX c #AADFD9",
"tX c #83E2CE",
"yX c #83E5D1",
"uX c #8AE4D3",
"iX c #A5EEE2",
"pX c #8DF2E3",
"aX c #C6C9C7",
"sX c #C6D9D9",
"dX c #DADADA",
"fX c #D4CDCA",
"gX c #E6CCC8",
"hX c #FACAC4",
"jX c #FDD7C6",
"kX c #FBCBD4",
"lX c #FBE5DA",
"zX c #FFE1CF",
"xX c #CAEBE5",
"cX c #D0EEEB",
"vX c #E8E8E8",
"bX c #FDFEFE",
"nX c #F5F5F5",
"mX c #F3EFED",
"MX c None",
/* pixels */
"MXMXMXMXMXMXMXMXMXMXMXMXMXMXMXMXMXMXMXMXMXMXMXMXMXMXMXMXMXMXMXMX",
"MXMXMXMXMXMXMXMXMXMXMXMXMXMXMXMXMXMXMXMXMXMXMXMXMXMXMXMXMXMXMXMX",
"MXMXMXMXMXMXMXMXMXMXMXa k k j j j j b x r MXMXMXMXMXMXMXMXMXMXMX",
"MXMXMXMXMXMXMXMXMXMX} | d.d.d.X.d.d...1.:.4.MXMXMXMXMXMXMXMXMXMX",
"MXMXMXMXMXMXMXMXMXX.XX-X*X*XXXl.x.x.h.+X9.0.k o E / p MXMXMXMXMX",
"MXMXMXMXMXMXMXMXp  .*X*X*XoXk.h.l.l.oX.X9.7./ ; E E 3 > MXMXMXMX",
"MXMXMXMXMXMXMXMX{  .f.$.+.! F @.h.oX*XoXO.R A N * $ : 2 MXMXMXMX",
"MXMXMXMXMXMXMXp { X.( W N V G =.OX1X9X-X+.D +.%.) g 2 ; MXMXMXMX",
"MXMXMXMXMXMXO 1 / / 3 S S o.*.$X4XlXvXsX} Y +X#X@X~.f MXMXMXMXMX",
"MXMXMXMXMXMXO 1 U U e 4 3 ' %X4XzXmXnXsX/.T #X4X5X:X@X,.MXMXMXMX",
"MXMXMXMXMXMXX p o.O._ S & _ >XjXzXzXlXfX} _ .X4X4X4XzX3X,.# MXMX",
"MXMXMXMXMX@ O g o.=.%._ / } 5XjXjXjX3X@X] / *..X>X4XjX3X,.> MXMX",
"MXMXMXMXMXMX+ f 3 _ .. X X;X4XjXjX5X!.f @ & B E ` 2.@X(.[ MXMXMX",
"MXMXMXMXMXMX@ + X g %.+X>X4X4X4X4X>X2.x ] ] ` ) h h x b MXMXMXMX",
"MXMXMXMXMXMX+ .   > o.8.$X,X,X,X<X<X;X;X;X>X3X>X(.] g MXMXMXMXMX",
"MXMXMXMXMX) ( ( j ( o.=.#X>X>X>X.X$X<X4X3XgXjX3X(.] d MXMXMXMXMX",
"MXMXc b { d.j.x.j.j.k.*X&X}.2X}.oX#.=.OX}.D.'.s.`.} b v d d MXMX",
"MX~.^.7X{.-X*Xz.oXk.k.XX_.A.P.U. X#.@.g.`.V.V.'.aXfX}.{.[.^./.MX",
"v ].dXnXvXkX*Xz.h.$.~ $.).D.T.uXqX:Xh.@.g.&X7XdXnXbXmXnXnXvX].n ",
"n {.mXbXbXmXkX1X=X$.F ! !.'.rXiXQ.0X:XoX-X-X1XgXnXbXbXbXbXvX].n ",
"n ].vXbXnXbXbXmX8Xd.Q ( M.0XxXcXeXT.eXsXvXhX&.*.4XlXmXmXvXfX^.v ",
"v ].dXnXnXnXnXdX7X/.a.a.Z.qXxXxXeXR.E.pXcXfX7.R 8.5X5X6X[.]./.MX",
"v ^.dXvXvXdX8X_.p.c.D.U.L.T.yXuXyXY.T.Y.yXqXG.-.3.5.0.1.m M MXMX",
"MX^.{.aX7X7Xa.p.c.v.R.Q.Y.T.I.I.T.Y.T.T.E.P.J.n.4.P P H %   MXMX",
"MXMXMXn v c i.V.L.Y.tXyXyXY.L.K.K.L.tXyXyXQ.L.N.z C J I e , MXMX",
"MXMXMX    t y.S.U.tXY.T.Y.U.D.V.H.Z.L.Q.W.2X'.<.h * e I w 9 MXMX",
"MXMXMX= - x p.Z.A.A.A.F.K.Z.C.u.i.c.Z.K.K.K.N.-.I - J q q < MXMX",
"MXMX8 0 5 z [ m.H.B.b.b.n.c.r.w.w.r.b.n.c.n.p.v z 5 6 q < < MXMX",
"MXMX8 0 5 J w l b v a t s s i MXMXe.r.u.u.t.t.M < 5 q < < MXMXMX",
"MXMX8 7 7 5 H Z C - I q 4 > MXMXMXMXw.w.w.w.u y , = , < MXMXMXMX",
"MXMXMX< 7 6 K H & I >.>.;.I MXMXMXMXMXMXMXMXMXMXMXMXMXMXMXMXMXMX",
"MXMXMXMX7 q J H & T 6.q.>.;.MXMXMXMXMXMXMXMXMXMXMXMXMXMXMXMXMXMX"
};
