/* XPM */
static char *result[] = {
/* columns rows colors chars-per-pixel */
"16 16 145 2 ",
"   c black",
".  c #3A001E",
"X  c #30003A",
"o  c #00272A",
"O  c #002A2E",
"+  c #372D32",
"@  c #343938",
"#  c #4F0000",
"$  c #570000",
"%  c #421A15",
"&  c #68000D",
"*  c #7F0000",
"=  c #482300",
"-  c #733D00",
";  c #6B0031",
":  c #4A3420",
">  c #4A3726",
",  c #4D3C27",
"<  c #513A22",
"1  c #4A3B3D",
"2  c #612B3A",
"3  c #713837",
"4  c #6D4000",
"5  c #5A4427",
"6  c #785C2E",
"7  c #6A4332",
"8  c #624C32",
"9  c #7C6939",
"0  c #00005E",
"q  c #00367F",
"w  c #753F4C",
"e  c #026D77",
"r  c #514F4F",
"t  c #57504B",
"y  c #5A405D",
"u  c #515155",
"i  c #694449",
"p  c #6E4849",
"a  c #6A5754",
"s  c #7D505C",
"d  c #737C40",
"f  c #766258",
"g  c #78625A",
"h  c #7E685E",
"j  c #4E767E",
"k  c #A90017",
"l  c #903E33",
"z  c #C8003D",
"x  c #EE003A",
"c  c #834800",
"v  c #885300",
"b  c #9F6D09",
"n  c #947C30",
"m  c #CC0044",
"M  c #F10056",
"N  c #FD0053",
"B  c #F70065",
"V  c #FF2F62",
"C  c #954941",
"Z  c #81524E",
"A  c #964352",
"S  c #82685F",
"D  c #815663",
"F  c #876768",
"G  c #88616D",
"H  c #966173",
"J  c #957F74",
"K  c #91767D",
"L  c #CB5652",
"P  c #CE5D59",
"I  c #DC645F",
"U  c #D65070",
"Y  c #FF406A",
"T  c #F55278",
"R  c #FC5A7D",
"E  c #B28331",
"W  c #DEB848",
"Q  c #D4B455",
"!  c #C98177",
"~  c #FBBC79",
"^  c #4A6E86",
"/  c #4E7C99",
"(  c #887F86",
")  c #8E7E97",
"_  c #A46E88",
"`  c #F75E8A",
"'  c #FF7C8F",
"]  c #FF6B99",
"[  c #FF7FA0",
"{  c #7D9DA6",
"}  c #55A9AF",
"|  c #54B5BB",
" . c #62B2B5",
".. c #61B7B7",
"X. c #54CAC6",
"o. c #65D5C8",
"O. c #7CD5C7",
"+. c #6FE5CC",
"@. c #7AE6D1",
"#. c #74EBD4",
"$. c #7FE9D3",
"%. c #7EEBD5",
"&. c #8A8886",
"*. c #9A8D91",
"=. c #BEA093",
"-. c #A19EA7",
";. c #A9A9AA",
":. c #BDB1A0",
">. c #C0878B",
",. c #D6909E",
"<. c #FF8C8D",
"1. c #FF9F92",
"2. c #FCA191",
"3. c #FFAA9D",
"4. c #FF8FAF",
"5. c #FF9AA7",
"6. c #FF91AA",
"7. c #E4BAAB",
"8. c #F9B0A2",
"9. c #FEB5A6",
"0. c #FBBDAD",
"q. c #F5A5B0",
"w. c #EFC2B3",
"e. c #F1C2B2",
"r. c #F7C5B5",
"t. c #FFC4B5",
"y. c #F7CFBE",
"u. c #89E7D8",
"i. c #D7DFDE",
"p. c #FFD2C1",
"a. c #FBD5C5",
"s. c #FFD8C7",
"d. c #F7D8CD",
"f. c #FFDFCD",
"g. c #E6DCD7",
"h. c #E1DDDD",
"j. c #FFE2D0",
"k. c #CFE6E1",
"l. c #D3E1E2",
"z. c #FFECF3",
"x. c #E8FFFF",
"c. c #F4F4F3",
"v. c #FCF9F9",
"b. c white",
"n. c None",
/* pixels */
"n.n.n.n.n.n.n.n.n.n.n.n.n.n.n.n.",
"n.n.n.n.u G s D F d n.n.n.n.n.n.",
"n.n.n.w 6.4.[ ] ' ~ X A 2 n.n.n.",
"n.n.n.H U k x <.q.m z & ; n.n.n.",
"n.n.O l 7 C 2.f.x.8 0.:.h n.n.n.",
"n.n.o I P # r.s.d.Z 1.t.j.S n.n.",
"n.n.@ 1 ! 7.y.p.f + * 3 J g n.n.",
"n.n.n.  L 3.9.8.w.e.a.=.n.n.n.n.",
"n.n.n.,.4.R V ) Y 5.b.h.r n.n.n.",
"n.n.i.z.B N M ` T b.v.c.;.n.n.n.",
"n.&.g.{ _ >.( K *.k.l.-.n.n.n.n.",
"n.= $ j o.#.$.%.@.+.X.0 n.n.n.n.",
", - y | O. .} } ..u./ n.n.n.n.n.",
"% E Q q ^ t i p a e n.n.n.n.n.n.",
"n.6 n n.. 4 v c b W   n.n.n.n.n.",
"n.n.n.n.n.> < : 5 9 n.n.n.n.n.n."
};
