/* XPM */
static char *result[] = {
/* columns rows colors chars-per-pixel */
"16 16 148 2 ",
"   c black",
".  c #390701",
"X  c #3A1C0F",
"o  c #591600",
"O  c #660000",
"+  c #4C3400",
"@  c #553A00",
"#  c #45332A",
"$  c #513926",
"%  c #623B2C",
"&  c #5C401F",
"*  c #774000",
"=  c #784100",
"-  c #62411C",
";  c #79501A",
":  c #654621",
">  c #654727",
",  c #734C22",
"<  c #794F23",
"1  c #795427",
"2  c #2E3F40",
"3  c #2A2B6E",
"4  c #2C2B6D",
"5  c #00646E",
"6  c #605452",
"7  c #5C634E",
"8  c #7C7756",
"9  c #407E7D",
"0  c #7D7077",
"q  c #7F7279",
"w  c #7C7C7C",
"e  c #891300",
"r  c #813F00",
"t  c #923A00",
"y  c #C20000",
"u  c #FD0012",
"i  c #DF0032",
"p  c #E00036",
"a  c #8A4800",
"s  c #8A6600",
"d  c #90783E",
"f  c #B12259",
"g  c #B63F5C",
"h  c #FF1448",
"j  c #FE2C76",
"k  c #FF3A70",
"l  c #FD3578",
"z  c #B6405C",
"x  c #896741",
"c  c #9A636F",
"v  c #947A6B",
"b  c #99796C",
"n  c #9F6975",
"m  c #8D7D74",
"M  c #927D75",
"N  c #FF5B5E",
"B  c #C0526C",
"V  c #C75678",
"C  c #FF5F61",
"Z  c #D46B67",
"A  c #FF707B",
"S  c #C99400",
"D  c #A8904E",
"F  c #AE9B59",
"G  c #CFA843",
"H  c #E7AC69",
"J  c #294190",
"K  c #2F7396",
"L  c #557380",
"P  c #567480",
"I  c #B37B82",
"U  c #BD7A84",
"Y  c #D67E8C",
"T  c #FF748E",
"R  c #55898A",
"E  c #56898B",
"W  c #55998C",
"Q  c #5F9593",
"!  c #728583",
"~  c #7F8080",
"^  c #728E8B",
"/  c #66918B",
"(  c #659B96",
")  c #40B7B4",
"_  c #41B7B4",
"`  c #808080",
"'  c #878989",
"]  c #898A8A",
"[  c #989494",
"{  c #9A9596",
"}  c #AA968E",
"|  c #AB968F",
" . c #A6989A",
".. c #AA9EA0",
"X. c #B9BEBF",
"o. c #CB828F",
"O. c #C5969A",
"+. c #FF8D8A",
"@. c #FF8E8A",
"#. c #FF9897",
"$. c #FF9997",
"%. c #F99A99",
"&. c #F99C9A",
"*. c #C4BD8E",
"=. c #C7BF97",
"-. c #F1A39F",
";. c #F7AC9E",
":. c #D096A0",
">. c #D9A3AC",
",. c #D1ABAF",
"<. c #D6B3A8",
"1. c #D3B2B3",
"2. c #FDA4A2",
"3. c #E2B3B9",
"4. c #F8CAB4",
"5. c #FFCAB8",
"6. c #FFCEBC",
"7. c #FFBFCA",
"8. c #8FD1C7",
"9. c #93DFCF",
"0. c #B9C0C0",
"q. c #ADD5CE",
"w. c #A0E3D6",
"e. c #B0E2DB",
"r. c #B1E3DC",
"t. c #A1F1DF",
"y. c #A8EBE2",
"u. c #A7F8EF",
"i. c #A7FAEF",
"p. c #CDCECE",
"a. c #D0CBCC",
"s. c #D9D5D6",
"d. c #FEC1CB",
"f. c #FFD3C1",
"g. c #FED4C1",
"h. c #FFD4C1",
"j. c #FADEE2",
"k. c #FBDFE3",
"l. c #DEEEEC",
"z. c #D5FBF8",
"x. c #D7FFFB",
"c. c #E5F5F3",
"v. c #FFF8F8",
"b. c #FFF9F9",
"n. c #FCFAFB",
"m. c #FEFFFF",
"M. c white",
"N. c None",
/* pixels */
"N.N.N.N.N.N.N.N.N.N.N.N.N.N.N.N.",
"N.N.N.N.N.N.N.N.N.N.N.N.N.N.N.N.",
"N.N.N.N.N.n g F F z c N.N.N.N.N.",
"N.N.N. ./ f l H H j V   ..' N.N.",
"N.] a.l.3.:.q o.o.0 >.U c.s.p.w ",
"N.[ M.k.u b.R 4.4.E v.h j.m.n.` ",
"N.{ M.7.C } <.f.f.<.| N d.M.M.~ ",
"N.N.^ B #.v 2 ;.;.2 b $.k I ! N.",
"N.N.N.N.Z 6.m 6 6 M 5.A y N.N.N.",
"N.N.N.5 Y 2.g.f.f.h.-.T O.N.N.N.",
"N.N.s =.y.i.&.+.@.%.u.w.q.*.N.N.",
"N.N.D S 7 8.,.p i 1.9.8 O G d N.",
"N.N.. % t 9 z.0.X.x.W e x o X N.",
"N.N.: 1 r ( r.t.t.e.Q a < ; & N.",
"N.N.N.> = L ) K K _ P * , - N.N.",
"N.N.N.# @ 3 J N.N.J 4 + $ N.N.N."
};
